  0
SECTION
  2
HEADER
  9
$ACADVER
  1
AC1014
  9
$HANDSEED
  5
FFFF
  9
$MEASUREMENT
 70
     1
  0
ENDSEC
  0
SECTION
  2
TABLES
  0
TABLE
  2
VPORT
  5
8
330
0
100
AcDbSymbolTable
 70
     4
  0
VPORT
  5
2E
330
8
100
AcDbSymbolTableRecord
100
AcDbViewportTableRecord
  2
*ACTIVE
 70
     0
 10
0.0
 20
0.0
 11
1.0
 21
1.0
 12
210.0
 22
148.5
 13
0.0
 23
0.0
 14
10.0
 24
10.0
 15
10.0
 25
10.0
 16
0.0
 26
0.0
 36
1.0
 17
0.0
 27
0.0
 37
0.0
 40
341.0
 41
1.24
 42
50.0
 43
0.0
 44
0.0
 50
0.0
 51
0.0
 71
     0
 72
   100
 73
     1
 74
     3
 75
     0
 76
     0
 77
     0
 78
     0
  0
ENDTAB
  0
TABLE
  2
LTYPE
  5
5
330
0
100
AcDbSymbolTable
 70
     1
  0
LTYPE
  5
14
330
5
100
AcDbSymbolTableRecord
100
AcDbLinetypeTableRecord
  2
BYBLOCK
 70
     0
  3

 72
    65
 73
     0
 40
0.0
  0
LTYPE
  5
15
330
5
100
AcDbSymbolTableRecord
100
AcDbLinetypeTableRecord
  2
BYLAYER
 70
     0
  3

 72
    65
 73
     0
 40
0.0
  0
LTYPE
  5
16
330
5
100
AcDbSymbolTableRecord
100
AcDbLinetypeTableRecord
  2
CONTINUOUS
 70
     0
  3
Solid line
 72
    65
 73
     0
 40
0.0
  0
ENDTAB
  0
TABLE
  2
LAYER
  5
2
100
AcDbSymbolTable
 70
4
  0
LAYER
  5
50
100
AcDbSymbolTableRecord
100
AcDbLayerTableRecord
  2
0
 70
0
  6
CONTINUOUS
  0
LAYER
  5
51
100
AcDbSymbolTableRecord
100
AcDbLayerTableRecord
  2
mfos_vco_VI_panel_2
 70
0
  6
CONTINUOUS
  0
LAYER
  5
52
100
AcDbSymbolTableRecord
100
AcDbLayerTableRecord
  2
holes
 70
0
  6
CONTINUOUS
  0
LAYER
  5
53
100
AcDbSymbolTableRecord
100
AcDbLayerTableRecord
  2
text
 70
0
  6
CONTINUOUS
  0
ENDTAB
  0
TABLE
  2
STYLE
  5
3
330
0
100
AcDbSymbolTable
 70
     1
  0
STYLE
  5
11
330
3
100
AcDbSymbolTableRecord
100
AcDbTextStyleTableRecord
  2
STANDARD
 70
     0
 40
0.0
 41
1.0
 50
0.0
 71
     0
 42
2.5
  3
txt
  4

  0
ENDTAB
  0
TABLE
  2
VIEW
  5
6
330
0
100
AcDbSymbolTable
 70
     0
  0
ENDTAB
  0
TABLE
  2
UCS
  5
7
330
0
100
AcDbSymbolTable
 70
     0
  0
ENDTAB
  0
TABLE
  2
APPID
  5
9
330
0
100
AcDbSymbolTable
 70
     2
  0
APPID
  5
12
330
9
100
AcDbSymbolTableRecord
100
AcDbRegAppTableRecord
  2
ACAD
 70
     0
  0
ENDTAB
  0
TABLE
  2
DIMSTYLE
  5
A
330
0
100
AcDbSymbolTable
 70
     1
  0
DIMSTYLE
105
27
330
A
100
AcDbSymbolTableRecord
100
AcDbDimStyleTableRecord
  2
ISO-25
 70
     0
  3

  4

  5

  6

  7

 40
1.0
 41
2.5
 42
0.625
 43
3.75
 44
1.25
 45
0.0
 46
0.0
 47
0.0
 48
0.0
140
2.5
141
2.5
142
0.0
143
0.03937007874016
144
1.0
145
0.0
146
1.0
147
0.625
 71
     0
 72
     0
 73
     0
 74
     0
 75
     0
 76
     0
 77
     1
 78
     8
170
     0
171
     3
172
     1
173
     0
174
     0
175
     0
176
     0
177
     0
178
     0
270
     2
271
     2
272
     2
273
     2
274
     3
340
11
275
     0
280
     0
281
     0
282
     0
283
     0
284
     8
285
     0
286
     0
287
     3
288
     0
  0
ENDTAB
  0
TABLE
  2
BLOCK_RECORD
  5
1
330
0
100
AcDbSymbolTable
 70
     1
  0
BLOCK_RECORD
  5
1F
330
1
100
AcDbSymbolTableRecord
100
AcDbBlockTableRecord
  2
*MODEL_SPACE
  0
BLOCK_RECORD
  5
1B
330
1
100
AcDbSymbolTableRecord
100
AcDbBlockTableRecord
  2
*PAPER_SPACE
  0
ENDTAB
  0
ENDSEC
  0
SECTION
  2
BLOCKS
  0
BLOCK
  5
20
330
1F
100
AcDbEntity
  8
0
100
AcDbBlockBegin
  2
*MODEL_SPACE
 70
     0
 10
0.0
 20
0.0
 30
0.0
  3
*MODEL_SPACE
  1

  0
ENDBLK
  5
21
330
1F
100
AcDbEntity
  8
0
100
AcDbBlockEnd
  0
BLOCK
  5
1C
330
1B
100
AcDbEntity
 67
     1
  8
0
100
AcDbBlockBegin
  2
*PAPER_SPACE
  1

  0
ENDBLK
  5
1D
330
1B
100
AcDbEntity
 67
     1
  8
0
100
AcDbBlockEnd
  0
ENDSEC
  0
SECTION
  2
ENTITIES
  0
LWPOLYLINE
  5
100
100
AcDbEntity
  8
text
 62
5
100
AcDbPolyline
 90
5
 70
1
 10
2.072987
 20
277.945359
 30
0.0
 10
214.026078
 20
277.945359
 30
0.0
 10
214.026078
 20
2.358977
 30
0.0
 10
2.072987
 20
2.358977
 30
0.0
 10
2.072987
 20
277.945359
 30
0.0
  0
SPLINE
  5
101
100
AcDbEntity
  8
text
 62
1
100
AcDbSpline
 70
8
 71
3
 72
8
 73
4
 74
0
 40
0
 40
0
 40
0
 40
0
 40
1
 40
1
 40
1
 40
1
 10
46.791285
 20
267.045673
 30
0.0
 10
46.791483
 20
266.959813
 30
0.0
 10
46.741211
 20
266.880397
 30
0.0
 10
46.659451
 20
266.837414
 30
0.0
  0
SPLINE
  5
102
100
AcDbEntity
  8
text
 62
1
100
AcDbSpline
 70
8
 71
3
 72
8
 73
4
 74
0
 40
0
 40
0
 40
0
 40
0
 40
1
 40
1
 40
1
 40
1
 10
46.659451
 20
266.837414
 30
0.0
 10
46.577690
 20
266.794432
 30
0.0
 10
46.476900
 20
266.794432
 30
0.0
 10
46.395140
 20
266.837414
 30
0.0
  0
SPLINE
  5
103
100
AcDbEntity
  8
text
 62
1
100
AcDbSpline
 70
8
 71
3
 72
8
 73
4
 74
0
 40
0
 40
0
 40
0
 40
0
 40
1
 40
1
 40
1
 40
1
 10
46.395140
 20
266.837414
 30
0.0
 10
46.313380
 20
266.880397
 30
0.0
 10
46.263107
 20
266.959813
 30
0.0
 10
46.263306
 20
267.045673
 30
0.0
  0
SPLINE
  5
104
100
AcDbEntity
  8
text
 62
1
100
AcDbSpline
 70
8
 71
3
 72
8
 73
4
 74
0
 40
0
 40
0
 40
0
 40
0
 40
1
 40
1
 40
1
 40
1
 10
46.263306
 20
267.045673
 30
0.0
 10
46.263107
 20
267.131534
 30
0.0
 10
46.313380
 20
267.210949
 30
0.0
 10
46.395140
 20
267.253932
 30
0.0
  0
SPLINE
  5
105
100
AcDbEntity
  8
text
 62
1
100
AcDbSpline
 70
8
 71
3
 72
8
 73
4
 74
0
 40
0
 40
0
 40
0
 40
0
 40
1
 40
1
 40
1
 40
1
 10
46.395140
 20
267.253932
 30
0.0
 10
46.476900
 20
267.296914
 30
0.0
 10
46.577690
 20
267.296914
 30
0.0
 10
46.659451
 20
267.253932
 30
0.0
  0
SPLINE
  5
106
100
AcDbEntity
  8
text
 62
1
100
AcDbSpline
 70
8
 71
3
 72
8
 73
4
 74
0
 40
0
 40
0
 40
0
 40
0
 40
1
 40
1
 40
1
 40
1
 10
46.659451
 20
267.253932
 30
0.0
 10
46.741211
 20
267.210949
 30
0.0
 10
46.791483
 20
267.131534
 30
0.0
 10
46.791285
 20
267.045673
 30
0.0
  0
LWPOLYLINE
  5
107
100
AcDbEntity
  8
text
 62
1
100
AcDbPolyline
 90
6
 70
0
 10
33.765568
 20
142.106478
 30
0.0
 10
11.309189
 20
142.106478
 30
0.0
 10
11.309189
 20
270.263243
 30
0.0
 10
73.489202
 20
270.263243
 30
0.0
 10
73.489202
 20
142.106478
 30
0.0
 10
11.309189
 20
142.106478
 30
0.0
  0
LWPOLYLINE
  5
108
100
AcDbEntity
  8
text
 62
1
100
AcDbPolyline
 90
2
 70
1
 10
46.791285
 20
267.045673
 30
0.0
 10
46.791285
 20
267.045673
 30
0.0
  0
LWPOLYLINE
  5
109
100
AcDbEntity
  8
text
 62
1
100
AcDbPolyline
 90
2
 70
0
 10
30.885900
 20
213.196689
 30
0.0
 10
26.431265
 20
205.178333
 30
0.0
  0
LWPOLYLINE
  5
10a
100
AcDbEntity
  8
text
 62
1
100
AcDbPolyline
 90
2
 70
0
 10
30.885900
 20
213.196689
 30
0.0
 10
22.689371
 20
209.098428
 30
0.0
  0
LWPOLYLINE
  5
10b
100
AcDbEntity
  8
text
 62
1
100
AcDbPolyline
 90
2
 70
0
 10
30.885900
 20
213.196689
 30
0.0
 10
21.798447
 20
214.265804
 30
0.0
  0
LWPOLYLINE
  5
10c
100
AcDbEntity
  8
text
 62
1
100
AcDbPolyline
 90
2
 70
0
 10
30.885900
 20
213.196689
 30
0.0
 10
23.936669
 20
219.076818
 30
0.0
  0
LWPOLYLINE
  5
10d
100
AcDbEntity
  8
text
 62
1
100
AcDbPolyline
 90
2
 70
0
 10
30.885900
 20
213.196689
 30
0.0
 10
28.391304
 20
221.927770
 30
0.0
  0
LWPOLYLINE
  5
10e
100
AcDbEntity
  8
text
 62
1
100
AcDbPolyline
 90
2
 70
0
 10
30.885900
 20
213.196689
 30
0.0
 10
33.380494
 20
221.927770
 30
0.0
  0
LWPOLYLINE
  5
10f
100
AcDbEntity
  8
text
 62
1
100
AcDbPolyline
 90
2
 70
0
 10
30.885900
 20
213.196689
 30
0.0
 10
37.835129
 20
219.076818
 30
0.0
  0
LWPOLYLINE
  5
110
100
AcDbEntity
  8
text
 62
1
100
AcDbPolyline
 90
2
 70
0
 10
30.885900
 20
213.196689
 30
0.0
 10
39.973354
 20
214.265804
 30
0.0
  0
LWPOLYLINE
  5
111
100
AcDbEntity
  8
text
 62
1
100
AcDbPolyline
 90
2
 70
0
 10
30.885900
 20
213.196689
 30
0.0
 10
39.082427
 20
209.098428
 30
0.0
  0
LWPOLYLINE
  5
112
100
AcDbEntity
  8
text
 62
1
100
AcDbPolyline
 90
2
 70
0
 10
30.885900
 20
213.196689
 30
0.0
 10
35.518719
 20
205.178333
 30
0.0
  0
LWPOLYLINE
  5
113
100
AcDbEntity
  8
text
 62
1
100
AcDbPolyline
 90
2
 70
0
 10
30.885900
 20
213.196689
 30
0.0
 10
26.965823
 20
206.247447
 30
0.0
  0
LWPOLYLINE
  5
114
100
AcDbEntity
  8
text
 62
1
100
AcDbPolyline
 90
2
 70
0
 10
30.885900
 20
213.196689
 30
0.0
 10
25.896708
 20
206.782004
 30
0.0
  0
LWPOLYLINE
  5
115
100
AcDbEntity
  8
text
 62
1
100
AcDbPolyline
 90
2
 70
0
 10
30.885900
 20
213.196689
 30
0.0
 10
25.005781
 20
207.672951
 30
0.0
  0
LWPOLYLINE
  5
116
100
AcDbEntity
  8
text
 62
1
100
AcDbPolyline
 90
2
 70
0
 10
30.885900
 20
213.196689
 30
0.0
 10
24.293040
 20
208.563870
 30
0.0
  0
LWPOLYLINE
  5
117
100
AcDbEntity
  8
text
 62
1
100
AcDbPolyline
 90
2
 70
0
 10
30.885900
 20
213.196689
 30
0.0
 10
23.580299
 20
209.632985
 30
0.0
  0
LWPOLYLINE
  5
118
100
AcDbEntity
  8
text
 62
1
100
AcDbPolyline
 90
2
 70
0
 10
30.885900
 20
213.196689
 30
0.0
 10
23.223928
 20
210.702099
 30
0.0
  0
LWPOLYLINE
  5
119
100
AcDbEntity
  8
text
 62
1
100
AcDbPolyline
 90
2
 70
0
 10
30.885900
 20
213.196689
 30
0.0
 10
22.867558
 20
211.949380
 30
0.0
  0
LWPOLYLINE
  5
11a
100
AcDbEntity
  8
text
 62
1
100
AcDbPolyline
 90
2
 70
0
 10
30.885900
 20
213.196689
 30
0.0
 10
22.867558
 20
213.018494
 30
0.0
  0
LWPOLYLINE
  5
11b
100
AcDbEntity
  8
text
 62
1
100
AcDbPolyline
 90
2
 70
0
 10
30.885900
 20
213.196689
 30
0.0
 10
22.867558
 20
214.087608
 30
0.0
  0
LWPOLYLINE
  5
11c
100
AcDbEntity
  8
text
 62
1
100
AcDbPolyline
 90
2
 70
0
 10
30.885900
 20
213.196689
 30
0.0
 10
23.045742
 20
215.156723
 30
0.0
  0
LWPOLYLINE
  5
11d
100
AcDbEntity
  8
text
 62
1
100
AcDbPolyline
 90
2
 70
0
 10
30.885900
 20
213.196689
 30
0.0
 10
23.402115
 20
216.404032
 30
0.0
  0
LWPOLYLINE
  5
11e
100
AcDbEntity
  8
text
 62
1
100
AcDbPolyline
 90
2
 70
0
 10
30.885900
 20
213.196689
 30
0.0
 10
23.936669
 20
217.473146
 30
0.0
  0
LWPOLYLINE
  5
11f
100
AcDbEntity
  8
text
 62
1
100
AcDbPolyline
 90
2
 70
0
 10
30.885900
 20
213.196689
 30
0.0
 10
24.649410
 20
218.364065
 30
0.0
  0
LWPOLYLINE
  5
120
100
AcDbEntity
  8
text
 62
1
100
AcDbPolyline
 90
2
 70
0
 10
30.885900
 20
213.196689
 30
0.0
 10
25.540338
 20
219.254984
 30
0.0
  0
LWPOLYLINE
  5
121
100
AcDbEntity
  8
text
 62
1
100
AcDbPolyline
 90
2
 70
0
 10
30.885900
 20
213.196689
 30
0.0
 10
26.431265
 20
219.967737
 30
0.0
  0
LWPOLYLINE
  5
122
100
AcDbEntity
  8
text
 62
1
100
AcDbPolyline
 90
2
 70
0
 10
30.885900
 20
213.196689
 30
0.0
 10
27.500377
 20
220.502294
 30
0.0
  0
LWPOLYLINE
  5
123
100
AcDbEntity
  8
text
 62
1
100
AcDbPolyline
 90
2
 70
0
 10
30.885900
 20
213.196689
 30
0.0
 10
28.569491
 20
221.036851
 30
0.0
  0
LWPOLYLINE
  5
124
100
AcDbEntity
  8
text
 62
1
100
AcDbPolyline
 90
2
 70
0
 10
30.885900
 20
213.196689
 30
0.0
 10
29.816786
 20
221.215018
 30
0.0
  0
LWPOLYLINE
  5
125
100
AcDbEntity
  8
text
 62
1
100
AcDbPolyline
 90
2
 70
0
 10
30.885900
 20
213.196689
 30
0.0
 10
30.885900
 20
221.393213
 30
0.0
  0
LWPOLYLINE
  5
126
100
AcDbEntity
  8
text
 62
1
100
AcDbPolyline
 90
2
 70
0
 10
30.885900
 20
213.196689
 30
0.0
 10
31.955012
 20
221.215018
 30
0.0
  0
LWPOLYLINE
  5
127
100
AcDbEntity
  8
text
 62
1
100
AcDbPolyline
 90
2
 70
0
 10
30.885900
 20
213.196689
 30
0.0
 10
33.202310
 20
221.036851
 30
0.0
  0
LWPOLYLINE
  5
128
100
AcDbEntity
  8
text
 62
1
100
AcDbPolyline
 90
2
 70
0
 10
30.885900
 20
213.196689
 30
0.0
 10
34.271421
 20
220.502294
 30
0.0
  0
LWPOLYLINE
  5
129
100
AcDbEntity
  8
text
 62
1
100
AcDbPolyline
 90
2
 70
0
 10
30.885900
 20
213.196689
 30
0.0
 10
35.340533
 20
219.967737
 30
0.0
  0
LWPOLYLINE
  5
12a
100
AcDbEntity
  8
text
 62
1
100
AcDbPolyline
 90
2
 70
0
 10
30.885900
 20
213.196689
 30
0.0
 10
36.231460
 20
219.254984
 30
0.0
  0
LWPOLYLINE
  5
12b
100
AcDbEntity
  8
text
 62
1
100
AcDbPolyline
 90
2
 70
0
 10
30.885900
 20
213.196689
 30
0.0
 10
37.122388
 20
218.364065
 30
0.0
  0
LWPOLYLINE
  5
12c
100
AcDbEntity
  8
text
 62
1
100
AcDbPolyline
 90
2
 70
0
 10
30.885900
 20
213.196689
 30
0.0
 10
37.835129
 20
217.473146
 30
0.0
  0
LWPOLYLINE
  5
12d
100
AcDbEntity
  8
text
 62
1
100
AcDbPolyline
 90
2
 70
0
 10
30.885900
 20
213.196689
 30
0.0
 10
38.369686
 20
216.404032
 30
0.0
  0
LWPOLYLINE
  5
12e
100
AcDbEntity
  8
text
 62
1
100
AcDbPolyline
 90
2
 70
0
 10
30.885900
 20
213.196689
 30
0.0
 10
38.726056
 20
215.156723
 30
0.0
  0
LWPOLYLINE
  5
12f
100
AcDbEntity
  8
text
 62
1
100
AcDbPolyline
 90
2
 70
0
 10
30.885900
 20
213.196689
 30
0.0
 10
38.904243
 20
214.087608
 30
0.0
  0
LWPOLYLINE
  5
130
100
AcDbEntity
  8
text
 62
1
100
AcDbPolyline
 90
2
 70
0
 10
30.885900
 20
213.196689
 30
0.0
 10
38.904243
 20
213.018494
 30
0.0
  0
LWPOLYLINE
  5
131
100
AcDbEntity
  8
text
 62
1
100
AcDbPolyline
 90
2
 70
0
 10
30.885900
 20
213.196689
 30
0.0
 10
38.904243
 20
211.949380
 30
0.0
  0
LWPOLYLINE
  5
132
100
AcDbEntity
  8
text
 62
1
100
AcDbPolyline
 90
2
 70
0
 10
30.885900
 20
213.196689
 30
0.0
 10
38.547870
 20
210.702099
 30
0.0
  0
LWPOLYLINE
  5
133
100
AcDbEntity
  8
text
 62
1
100
AcDbPolyline
 90
2
 70
0
 10
30.885900
 20
213.196689
 30
0.0
 10
38.191499
 20
209.632985
 30
0.0
  0
LWPOLYLINE
  5
134
100
AcDbEntity
  8
text
 62
1
100
AcDbPolyline
 90
2
 70
0
 10
30.885900
 20
213.196689
 30
0.0
 10
37.478758
 20
208.563870
 30
0.0
  0
LWPOLYLINE
  5
135
100
AcDbEntity
  8
text
 62
1
100
AcDbPolyline
 90
2
 70
0
 10
30.885900
 20
213.196689
 30
0.0
 10
36.766017
 20
207.672951
 30
0.0
  0
LWPOLYLINE
  5
136
100
AcDbEntity
  8
text
 62
1
100
AcDbPolyline
 90
2
 70
0
 10
30.885900
 20
213.196689
 30
0.0
 10
35.875090
 20
206.782004
 30
0.0
  0
SPLINE
  5
137
100
AcDbEntity
  8
text
 62
1
100
AcDbSpline
 70
8
 71
3
 72
8
 73
4
 74
0
 40
0
 40
0
 40
0
 40
0
 40
1
 40
1
 40
1
 40
1
 10
28.213118
 20
213.196689
 30
0.0
 10
28.213118
 20
214.800361
 30
0.0
 10
29.282232
 20
215.869475
 30
0.0
 10
30.885900
 20
215.869475
 30
0.0
  0
SPLINE
  5
138
100
AcDbEntity
  8
text
 62
1
100
AcDbSpline
 70
8
 71
3
 72
8
 73
4
 74
0
 40
0
 40
0
 40
0
 40
0
 40
1
 40
1
 40
1
 40
1
 10
30.885900
 20
215.869475
 30
0.0
 10
32.489569
 20
215.869475
 30
0.0
 10
33.558680
 20
214.800361
 30
0.0
 10
33.558680
 20
213.196689
 30
0.0
  0
SPLINE
  5
139
100
AcDbEntity
  8
text
 62
1
100
AcDbSpline
 70
8
 71
3
 72
8
 73
4
 74
0
 40
0
 40
0
 40
0
 40
0
 40
1
 40
1
 40
1
 40
1
 10
33.558680
 20
213.196689
 30
0.0
 10
33.558680
 20
211.593018
 30
0.0
 10
32.489569
 20
210.523904
 30
0.0
 10
30.885900
 20
210.523904
 30
0.0
  0
SPLINE
  5
13a
100
AcDbEntity
  8
text
 62
1
100
AcDbSpline
 70
8
 71
3
 72
8
 73
4
 74
0
 40
0
 40
0
 40
0
 40
0
 40
1
 40
1
 40
1
 40
1
 10
30.885900
 20
210.523904
 30
0.0
 10
29.282232
 20
210.523904
 30
0.0
 10
28.213118
 20
211.593018
 30
0.0
 10
28.213118
 20
213.196689
 30
0.0
  0
LWPOLYLINE
  5
13b
100
AcDbEntity
  8
text
 62
1
100
AcDbPolyline
 90
2
 70
0
 10
30.885900
 20
213.196689
 30
0.0
 10
34.984162
 20
206.247447
 30
0.0
  0
LWPOLYLINE
  5
13c
100
AcDbEntity
  8
text
 62
1
100
AcDbPolyline
 90
2
 70
0
 10
29.816786
 20
213.196689
 30
0.0
 10
31.955012
 20
213.196689
 30
0.0
  0
SPLINE
  5
13d
100
AcDbEntity
  8
text
 62
7
100
AcDbSpline
 70
8
 71
3
 72
8
 73
4
 74
0
 40
0
 40
0
 40
0
 40
0
 40
1
 40
1
 40
1
 40
1
 10
31.097784
 20
213.142371
 30
0.0
 10
31.097784
 20
213.023082
 30
0.0
 10
30.990338
 20
212.926379
 30
0.0
 10
30.857793
 20
212.926379
 30
0.0
  0
SPLINE
  5
13e
100
AcDbEntity
  8
text
 62
7
100
AcDbSpline
 70
8
 71
3
 72
8
 73
4
 74
0
 40
0
 40
0
 40
0
 40
0
 40
1
 40
1
 40
1
 40
1
 10
30.857793
 20
212.926379
 30
0.0
 10
30.725251
 20
212.926379
 30
0.0
 10
30.617801
 20
213.023082
 30
0.0
 10
30.617801
 20
213.142371
 30
0.0
  0
SPLINE
  5
13f
100
AcDbEntity
  8
text
 62
7
100
AcDbSpline
 70
8
 71
3
 72
8
 73
4
 74
0
 40
0
 40
0
 40
0
 40
0
 40
1
 40
1
 40
1
 40
1
 10
30.617801
 20
213.142371
 30
0.0
 10
30.617801
 20
213.261659
 30
0.0
 10
30.725251
 20
213.358362
 30
0.0
 10
30.857793
 20
213.358362
 30
0.0
  0
SPLINE
  5
140
100
AcDbEntity
  8
text
 62
7
100
AcDbSpline
 70
8
 71
3
 72
8
 73
4
 74
0
 40
0
 40
0
 40
0
 40
0
 40
1
 40
1
 40
1
 40
1
 10
30.857793
 20
213.358362
 30
0.0
 10
30.990338
 20
213.358362
 30
0.0
 10
31.097784
 20
213.261659
 30
0.0
 10
31.097784
 20
213.142371
 30
0.0
  0
LWPOLYLINE
  5
141
100
AcDbEntity
  8
text
 62
1
100
AcDbPolyline
 90
2
 70
0
 10
30.885900
 20
212.127575
 30
0.0
 10
30.885900
 20
214.265804
 30
0.0
  0
SPLINE
  5
142
100
AcDbEntity
  8
text
 62
1
100
AcDbSpline
 70
8
 71
3
 72
8
 73
4
 74
0
 40
0
 40
0
 40
0
 40
0
 40
1
 40
1
 40
1
 40
1
 10
46.743289
 20
145.730340
 30
0.0
 10
46.743289
 20
145.670322
 30
0.0
 10
46.702121
 20
145.614863
 30
0.0
 10
46.635293
 20
145.584854
 30
0.0
  0
SPLINE
  5
143
100
AcDbEntity
  8
text
 62
1
100
AcDbSpline
 70
8
 71
3
 72
8
 73
4
 74
0
 40
0
 40
0
 40
0
 40
0
 40
1
 40
1
 40
1
 40
1
 10
46.635293
 20
145.584854
 30
0.0
 10
46.568465
 20
145.554844
 30
0.0
 10
46.486129
 20
145.554844
 30
0.0
 10
46.419301
 20
145.584854
 30
0.0
  0
SPLINE
  5
144
100
AcDbEntity
  8
text
 62
1
100
AcDbSpline
 70
8
 71
3
 72
8
 73
4
 74
0
 40
0
 40
0
 40
0
 40
0
 40
1
 40
1
 40
1
 40
1
 10
46.419301
 20
145.584854
 30
0.0
 10
46.352473
 20
145.614863
 30
0.0
 10
46.311305
 20
145.670322
 30
0.0
 10
46.311306
 20
145.730340
 30
0.0
  0
SPLINE
  5
145
100
AcDbEntity
  8
text
 62
1
100
AcDbSpline
 70
8
 71
3
 72
8
 73
4
 74
0
 40
0
 40
0
 40
0
 40
0
 40
1
 40
1
 40
1
 40
1
 10
46.311306
 20
145.730340
 30
0.0
 10
46.311306
 20
145.790359
 30
0.0
 10
46.352473
 20
145.845818
 30
0.0
 10
46.419301
 20
145.875827
 30
0.0
  0
SPLINE
  5
146
100
AcDbEntity
  8
text
 62
1
100
AcDbSpline
 70
8
 71
3
 72
8
 73
4
 74
0
 40
0
 40
0
 40
0
 40
0
 40
1
 40
1
 40
1
 40
1
 10
46.419301
 20
145.875827
 30
0.0
 10
46.486129
 20
145.905836
 30
0.0
 10
46.568465
 20
145.905836
 30
0.0
 10
46.635293
 20
145.875827
 30
0.0
  0
SPLINE
  5
147
100
AcDbEntity
  8
text
 62
1
100
AcDbSpline
 70
8
 71
3
 72
8
 73
4
 74
0
 40
0
 40
0
 40
0
 40
0
 40
1
 40
1
 40
1
 40
1
 10
46.635293
 20
145.875827
 30
0.0
 10
46.702121
 20
145.845818
 30
0.0
 10
46.743289
 20
145.790359
 30
0.0
 10
46.743289
 20
145.730340
 30
0.0
  0
LWPOLYLINE
  5
148
100
AcDbEntity
  8
text
 62
7
100
AcDbPolyline
 90
2
 70
1
 10
31.097784
 20
213.142371
 30
0.0
 10
31.097784
 20
213.142371
 30
0.0
  0
LWPOLYLINE
  5
149
100
AcDbEntity
  8
text
 62
1
100
AcDbPolyline
 90
2
 70
1
 10
46.743289
 20
145.730340
 30
0.0
 10
46.743289
 20
145.730340
 30
0.0
  0
LWPOLYLINE
  5
14a
100
AcDbEntity
  8
text
 62
1
100
AcDbPolyline
 90
2
 70
0
 10
30.885900
 20
229.584956
 30
0.0
 10
26.431265
 20
221.566599
 30
0.0
  0
LWPOLYLINE
  5
14b
100
AcDbEntity
  8
text
 62
1
100
AcDbPolyline
 90
2
 70
0
 10
30.885900
 20
229.584956
 30
0.0
 10
22.689371
 20
225.486694
 30
0.0
  0
LWPOLYLINE
  5
14c
100
AcDbEntity
  8
text
 62
1
100
AcDbPolyline
 90
2
 70
0
 10
30.885900
 20
229.584956
 30
0.0
 10
21.798446
 20
230.654070
 30
0.0
  0
LWPOLYLINE
  5
14d
100
AcDbEntity
  8
text
 62
1
100
AcDbPolyline
 90
2
 70
0
 10
30.885900
 20
229.584956
 30
0.0
 10
23.936669
 20
235.465084
 30
0.0
  0
LWPOLYLINE
  5
14e
100
AcDbEntity
  8
text
 62
1
100
AcDbPolyline
 90
2
 70
0
 10
30.885900
 20
229.584956
 30
0.0
 10
28.391304
 20
238.316036
 30
0.0
  0
LWPOLYLINE
  5
14f
100
AcDbEntity
  8
text
 62
1
100
AcDbPolyline
 90
2
 70
0
 10
30.885900
 20
229.584956
 30
0.0
 10
33.380493
 20
238.316036
 30
0.0
  0
LWPOLYLINE
  5
150
100
AcDbEntity
  8
text
 62
1
100
AcDbPolyline
 90
2
 70
0
 10
30.885900
 20
229.584956
 30
0.0
 10
37.835128
 20
235.465084
 30
0.0
  0
LWPOLYLINE
  5
151
100
AcDbEntity
  8
text
 62
1
100
AcDbPolyline
 90
2
 70
0
 10
30.885900
 20
229.584956
 30
0.0
 10
39.973354
 20
230.654070
 30
0.0
  0
LWPOLYLINE
  5
152
100
AcDbEntity
  8
text
 62
1
100
AcDbPolyline
 90
2
 70
0
 10
30.885900
 20
229.584956
 30
0.0
 10
39.082426
 20
225.486694
 30
0.0
  0
LWPOLYLINE
  5
153
100
AcDbEntity
  8
text
 62
1
100
AcDbPolyline
 90
2
 70
0
 10
30.885900
 20
229.584956
 30
0.0
 10
35.518719
 20
221.566599
 30
0.0
  0
LWPOLYLINE
  5
154
100
AcDbEntity
  8
text
 62
1
100
AcDbPolyline
 90
2
 70
0
 10
30.885900
 20
229.584956
 30
0.0
 10
26.965822
 20
222.635713
 30
0.0
  0
LWPOLYLINE
  5
155
100
AcDbEntity
  8
text
 62
1
100
AcDbPolyline
 90
2
 70
0
 10
30.885900
 20
229.584956
 30
0.0
 10
25.896708
 20
223.170270
 30
0.0
  0
LWPOLYLINE
  5
156
100
AcDbEntity
  8
text
 62
1
100
AcDbPolyline
 90
2
 70
0
 10
30.885900
 20
229.584956
 30
0.0
 10
25.005780
 20
224.061218
 30
0.0
  0
LWPOLYLINE
  5
157
100
AcDbEntity
  8
text
 62
1
100
AcDbPolyline
 90
2
 70
0
 10
30.885900
 20
229.584956
 30
0.0
 10
24.293039
 20
224.952137
 30
0.0
  0
LWPOLYLINE
  5
158
100
AcDbEntity
  8
text
 62
1
100
AcDbPolyline
 90
2
 70
0
 10
30.885900
 20
229.584956
 30
0.0
 10
23.580298
 20
226.021251
 30
0.0
  0
LWPOLYLINE
  5
159
100
AcDbEntity
  8
text
 62
1
100
AcDbPolyline
 90
2
 70
0
 10
30.885900
 20
229.584956
 30
0.0
 10
23.223928
 20
227.090365
 30
0.0
  0
LWPOLYLINE
  5
15a
100
AcDbEntity
  8
text
 62
1
100
AcDbPolyline
 90
2
 70
0
 10
30.885900
 20
229.584956
 30
0.0
 10
22.867557
 20
228.337646
 30
0.0
  0
LWPOLYLINE
  5
15b
100
AcDbEntity
  8
text
 62
1
100
AcDbPolyline
 90
2
 70
0
 10
30.885900
 20
229.584956
 30
0.0
 10
22.867557
 20
229.406760
 30
0.0
  0
LWPOLYLINE
  5
15c
100
AcDbEntity
  8
text
 62
1
100
AcDbPolyline
 90
2
 70
0
 10
30.885900
 20
229.584956
 30
0.0
 10
22.867557
 20
230.475875
 30
0.0
  0
LWPOLYLINE
  5
15d
100
AcDbEntity
  8
text
 62
1
100
AcDbPolyline
 90
2
 70
0
 10
30.885900
 20
229.584956
 30
0.0
 10
23.045741
 20
231.544989
 30
0.0
  0
LWPOLYLINE
  5
15e
100
AcDbEntity
  8
text
 62
1
100
AcDbPolyline
 90
2
 70
0
 10
30.885900
 20
229.584956
 30
0.0
 10
23.402114
 20
232.792298
 30
0.0
  0
LWPOLYLINE
  5
15f
100
AcDbEntity
  8
text
 62
1
100
AcDbPolyline
 90
2
 70
0
 10
30.885900
 20
229.584956
 30
0.0
 10
23.936669
 20
233.861412
 30
0.0
  0
LWPOLYLINE
  5
160
100
AcDbEntity
  8
text
 62
1
100
AcDbPolyline
 90
2
 70
0
 10
30.885900
 20
229.584956
 30
0.0
 10
24.649410
 20
234.752332
 30
0.0
  0
LWPOLYLINE
  5
161
100
AcDbEntity
  8
text
 62
1
100
AcDbPolyline
 90
2
 70
0
 10
30.885900
 20
229.584956
 30
0.0
 10
25.540337
 20
235.643251
 30
0.0
  0
LWPOLYLINE
  5
162
100
AcDbEntity
  8
text
 62
1
100
AcDbPolyline
 90
2
 70
0
 10
30.885900
 20
229.584956
 30
0.0
 10
26.431265
 20
236.356003
 30
0.0
  0
LWPOLYLINE
  5
163
100
AcDbEntity
  8
text
 62
1
100
AcDbPolyline
 90
2
 70
0
 10
30.885900
 20
229.584956
 30
0.0
 10
27.500376
 20
236.890560
 30
0.0
  0
LWPOLYLINE
  5
164
100
AcDbEntity
  8
text
 62
1
100
AcDbPolyline
 90
2
 70
0
 10
30.885900
 20
229.584956
 30
0.0
 10
28.569490
 20
237.425117
 30
0.0
  0
LWPOLYLINE
  5
165
100
AcDbEntity
  8
text
 62
1
100
AcDbPolyline
 90
2
 70
0
 10
30.885900
 20
229.584956
 30
0.0
 10
29.816786
 20
237.603284
 30
0.0
  0
LWPOLYLINE
  5
166
100
AcDbEntity
  8
text
 62
1
100
AcDbPolyline
 90
2
 70
0
 10
30.885900
 20
229.584956
 30
0.0
 10
30.885900
 20
237.781479
 30
0.0
  0
LWPOLYLINE
  5
167
100
AcDbEntity
  8
text
 62
1
100
AcDbPolyline
 90
2
 70
0
 10
30.885900
 20
229.584956
 30
0.0
 10
31.955011
 20
237.603284
 30
0.0
  0
LWPOLYLINE
  5
168
100
AcDbEntity
  8
text
 62
1
100
AcDbPolyline
 90
2
 70
0
 10
30.885900
 20
229.584956
 30
0.0
 10
33.202309
 20
237.425117
 30
0.0
  0
LWPOLYLINE
  5
169
100
AcDbEntity
  8
text
 62
1
100
AcDbPolyline
 90
2
 70
0
 10
30.885900
 20
229.584956
 30
0.0
 10
34.271421
 20
236.890560
 30
0.0
  0
LWPOLYLINE
  5
16a
100
AcDbEntity
  8
text
 62
1
100
AcDbPolyline
 90
2
 70
0
 10
30.885900
 20
229.584956
 30
0.0
 10
35.340532
 20
236.356003
 30
0.0
  0
LWPOLYLINE
  5
16b
100
AcDbEntity
  8
text
 62
1
100
AcDbPolyline
 90
2
 70
0
 10
30.885900
 20
229.584956
 30
0.0
 10
36.231460
 20
235.643251
 30
0.0
  0
LWPOLYLINE
  5
16c
100
AcDbEntity
  8
text
 62
1
100
AcDbPolyline
 90
2
 70
0
 10
30.885900
 20
229.584956
 30
0.0
 10
37.122387
 20
234.752332
 30
0.0
  0
LWPOLYLINE
  5
16d
100
AcDbEntity
  8
text
 62
1
100
AcDbPolyline
 90
2
 70
0
 10
30.885900
 20
229.584956
 30
0.0
 10
37.835128
 20
233.861412
 30
0.0
  0
LWPOLYLINE
  5
16e
100
AcDbEntity
  8
text
 62
1
100
AcDbPolyline
 90
2
 70
0
 10
30.885900
 20
229.584956
 30
0.0
 10
38.369685
 20
232.792298
 30
0.0
  0
LWPOLYLINE
  5
16f
100
AcDbEntity
  8
text
 62
1
100
AcDbPolyline
 90
2
 70
0
 10
30.885900
 20
229.584956
 30
0.0
 10
38.726056
 20
231.544989
 30
0.0
  0
LWPOLYLINE
  5
170
100
AcDbEntity
  8
text
 62
1
100
AcDbPolyline
 90
2
 70
0
 10
30.885900
 20
229.584956
 30
0.0
 10
38.904242
 20
230.475875
 30
0.0
  0
LWPOLYLINE
  5
171
100
AcDbEntity
  8
text
 62
1
100
AcDbPolyline
 90
2
 70
0
 10
30.885900
 20
229.584956
 30
0.0
 10
38.904242
 20
229.406760
 30
0.0
  0
LWPOLYLINE
  5
172
100
AcDbEntity
  8
text
 62
1
100
AcDbPolyline
 90
2
 70
0
 10
30.885900
 20
229.584956
 30
0.0
 10
38.904242
 20
228.337646
 30
0.0
  0
LWPOLYLINE
  5
173
100
AcDbEntity
  8
text
 62
1
100
AcDbPolyline
 90
2
 70
0
 10
30.885900
 20
229.584956
 30
0.0
 10
38.547869
 20
227.090365
 30
0.0
  0
LWPOLYLINE
  5
174
100
AcDbEntity
  8
text
 62
1
100
AcDbPolyline
 90
2
 70
0
 10
30.885900
 20
229.584956
 30
0.0
 10
38.191499
 20
226.021251
 30
0.0
  0
LWPOLYLINE
  5
175
100
AcDbEntity
  8
text
 62
1
100
AcDbPolyline
 90
2
 70
0
 10
30.885900
 20
229.584956
 30
0.0
 10
37.478758
 20
224.952137
 30
0.0
  0
LWPOLYLINE
  5
176
100
AcDbEntity
  8
text
 62
1
100
AcDbPolyline
 90
2
 70
0
 10
30.885900
 20
229.584956
 30
0.0
 10
36.766017
 20
224.061218
 30
0.0
  0
LWPOLYLINE
  5
177
100
AcDbEntity
  8
text
 62
1
100
AcDbPolyline
 90
2
 70
0
 10
30.885900
 20
229.584956
 30
0.0
 10
35.875089
 20
223.170270
 30
0.0
  0
SPLINE
  5
178
100
AcDbEntity
  8
text
 62
1
100
AcDbSpline
 70
8
 71
3
 72
8
 73
4
 74
0
 40
0
 40
0
 40
0
 40
0
 40
1
 40
1
 40
1
 40
1
 10
28.213117
 20
229.584956
 30
0.0
 10
28.213117
 20
231.188627
 30
0.0
 10
29.282231
 20
232.257741
 30
0.0
 10
30.885900
 20
232.257741
 30
0.0
  0
SPLINE
  5
179
100
AcDbEntity
  8
text
 62
1
100
AcDbSpline
 70
8
 71
3
 72
8
 73
4
 74
0
 40
0
 40
0
 40
0
 40
0
 40
1
 40
1
 40
1
 40
1
 10
30.885900
 20
232.257741
 30
0.0
 10
32.489568
 20
232.257741
 30
0.0
 10
33.558680
 20
231.188627
 30
0.0
 10
33.558680
 20
229.584956
 30
0.0
  0
SPLINE
  5
17a
100
AcDbEntity
  8
text
 62
1
100
AcDbSpline
 70
8
 71
3
 72
8
 73
4
 74
0
 40
0
 40
0
 40
0
 40
0
 40
1
 40
1
 40
1
 40
1
 10
33.558680
 20
229.584956
 30
0.0
 10
33.558680
 20
227.981284
 30
0.0
 10
32.489568
 20
226.912170
 30
0.0
 10
30.885900
 20
226.912170
 30
0.0
  0
SPLINE
  5
17b
100
AcDbEntity
  8
text
 62
1
100
AcDbSpline
 70
8
 71
3
 72
8
 73
4
 74
0
 40
0
 40
0
 40
0
 40
0
 40
1
 40
1
 40
1
 40
1
 10
30.885900
 20
226.912170
 30
0.0
 10
29.282231
 20
226.912170
 30
0.0
 10
28.213117
 20
227.981284
 30
0.0
 10
28.213117
 20
229.584956
 30
0.0
  0
LWPOLYLINE
  5
17c
100
AcDbEntity
  8
text
 62
1
100
AcDbPolyline
 90
2
 70
0
 10
30.885900
 20
229.584956
 30
0.0
 10
34.984162
 20
222.635713
 30
0.0
  0
LWPOLYLINE
  5
17d
100
AcDbEntity
  8
text
 62
1
100
AcDbPolyline
 90
2
 70
0
 10
29.816786
 20
229.584956
 30
0.0
 10
31.955011
 20
229.584956
 30
0.0
  0
SPLINE
  5
17e
100
AcDbEntity
  8
text
 62
7
100
AcDbSpline
 70
8
 71
3
 72
8
 73
4
 74
0
 40
0
 40
0
 40
0
 40
0
 40
1
 40
1
 40
1
 40
1
 10
31.097784
 20
229.530625
 30
0.0
 10
31.097784
 20
229.411337
 30
0.0
 10
30.990337
 20
229.314634
 30
0.0
 10
30.857792
 20
229.314634
 30
0.0
  0
SPLINE
  5
17f
100
AcDbEntity
  8
text
 62
7
100
AcDbSpline
 70
8
 71
3
 72
8
 73
4
 74
0
 40
0
 40
0
 40
0
 40
0
 40
1
 40
1
 40
1
 40
1
 10
30.857792
 20
229.314634
 30
0.0
 10
30.725251
 20
229.314634
 30
0.0
 10
30.617801
 20
229.411337
 30
0.0
 10
30.617801
 20
229.530625
 30
0.0
  0
SPLINE
  5
180
100
AcDbEntity
  8
text
 62
7
100
AcDbSpline
 70
8
 71
3
 72
8
 73
4
 74
0
 40
0
 40
0
 40
0
 40
0
 40
1
 40
1
 40
1
 40
1
 10
30.617801
 20
229.530625
 30
0.0
 10
30.617801
 20
229.649914
 30
0.0
 10
30.725251
 20
229.746617
 30
0.0
 10
30.857792
 20
229.746617
 30
0.0
  0
SPLINE
  5
181
100
AcDbEntity
  8
text
 62
7
100
AcDbSpline
 70
8
 71
3
 72
8
 73
4
 74
0
 40
0
 40
0
 40
0
 40
0
 40
1
 40
1
 40
1
 40
1
 10
30.857792
 20
229.746617
 30
0.0
 10
30.990337
 20
229.746617
 30
0.0
 10
31.097784
 20
229.649914
 30
0.0
 10
31.097784
 20
229.530625
 30
0.0
  0
LWPOLYLINE
  5
182
100
AcDbEntity
  8
text
 62
1
100
AcDbPolyline
 90
2
 70
0
 10
30.885900
 20
228.515841
 30
0.0
 10
30.885900
 20
230.654070
 30
0.0
  0
SPLINE
  5
183
100
AcDbEntity
  8
text
 62
1
100
AcDbSpline
 70
8
 71
3
 72
8
 73
4
 74
0
 40
0
 40
0
 40
0
 40
0
 40
1
 40
1
 40
1
 40
1
 10
47.738741
 20
246.138937
 30
0.0
 10
47.738741
 20
247.909882
 30
0.0
 10
48.919841
 20
249.090629
 30
0.0
 10
50.690786
 20
249.090629
 30
0.0
  0
SPLINE
  5
184
100
AcDbEntity
  8
text
 62
1
100
AcDbSpline
 70
8
 71
3
 72
8
 73
4
 74
0
 40
0
 40
0
 40
0
 40
0
 40
1
 40
1
 40
1
 40
1
 10
50.690786
 20
249.090629
 30
0.0
 10
52.462788
 20
249.090629
 30
0.0
 10
53.642477
 20
247.909882
 30
0.0
 10
53.642477
 20
246.138937
 30
0.0
  0
SPLINE
  5
185
100
AcDbEntity
  8
text
 62
1
100
AcDbSpline
 70
8
 71
3
 72
8
 73
4
 74
0
 40
0
 40
0
 40
0
 40
0
 40
1
 40
1
 40
1
 40
1
 10
53.642477
 20
246.138937
 30
0.0
 10
53.642477
 20
244.368345
 30
0.0
 10
52.462788
 20
243.187245
 30
0.0
 10
50.690786
 20
243.187245
 30
0.0
  0
SPLINE
  5
186
100
AcDbEntity
  8
text
 62
1
100
AcDbSpline
 70
8
 71
3
 72
8
 73
4
 74
0
 40
0
 40
0
 40
0
 40
0
 40
1
 40
1
 40
1
 40
1
 10
50.690786
 20
243.187245
 30
0.0
 10
48.919841
 20
243.187245
 30
0.0
 10
47.738741
 20
244.368345
 30
0.0
 10
47.738741
 20
246.138937
 30
0.0
  0
LWPOLYLINE
  5
187
100
AcDbEntity
  8
text
 62
7
100
AcDbPolyline
 90
2
 70
1
 10
31.097784
 20
229.530625
 30
0.0
 10
31.097784
 20
229.530625
 30
0.0
  0
LWPOLYLINE
  5
188
100
AcDbEntity
  8
text
 62
1
100
AcDbPolyline
 90
2
 70
0
 10
49.511097
 20
246.138937
 30
0.0
 10
51.871533
 20
246.138937
 30
0.0
  0
SPLINE
  5
189
100
AcDbEntity
  8
text
 62
1
100
AcDbSpline
 70
8
 71
3
 72
8
 73
4
 74
0
 40
0
 40
0
 40
0
 40
0
 40
1
 40
1
 40
1
 40
1
 10
21.209852
 20
197.509390
 30
0.0
 10
21.209852
 20
199.280334
 30
0.0
 10
22.390952
 20
200.461081
 30
0.0
 10
24.161897
 20
200.461081
 30
0.0
  0
SPLINE
  5
18a
100
AcDbEntity
  8
text
 62
1
100
AcDbSpline
 70
8
 71
3
 72
8
 73
4
 74
0
 40
0
 40
0
 40
0
 40
0
 40
1
 40
1
 40
1
 40
1
 10
24.161897
 20
200.461081
 30
0.0
 10
25.933900
 20
200.461081
 30
0.0
 10
27.113588
 20
199.280334
 30
0.0
 10
27.113588
 20
197.509390
 30
0.0
  0
SPLINE
  5
18b
100
AcDbEntity
  8
text
 62
1
100
AcDbSpline
 70
8
 71
3
 72
8
 73
4
 74
0
 40
0
 40
0
 40
0
 40
0
 40
1
 40
1
 40
1
 40
1
 10
27.113588
 20
197.509390
 30
0.0
 10
27.113588
 20
195.738798
 30
0.0
 10
25.933900
 20
194.557698
 30
0.0
 10
24.161897
 20
194.557698
 30
0.0
  0
SPLINE
  5
18c
100
AcDbEntity
  8
text
 62
1
100
AcDbSpline
 70
8
 71
3
 72
8
 73
4
 74
0
 40
0
 40
0
 40
0
 40
0
 40
1
 40
1
 40
1
 40
1
 10
24.161897
 20
194.557698
 30
0.0
 10
22.390952
 20
194.557698
 30
0.0
 10
21.209852
 20
195.738798
 30
0.0
 10
21.209852
 20
197.509390
 30
0.0
  0
LWPOLYLINE
  5
18d
100
AcDbEntity
  8
text
 62
1
100
AcDbPolyline
 90
2
 70
0
 10
50.690786
 20
244.958190
 30
0.0
 10
50.690786
 20
247.320037
 30
0.0
  0
LWPOLYLINE
  5
18e
100
AcDbEntity
  8
text
 62
1
100
AcDbPolyline
 90
2
 70
0
 10
22.982208
 20
197.509390
 30
0.0
 10
25.342644
 20
197.509390
 30
0.0
  0
LWPOLYLINE
  5
18f
100
AcDbEntity
  8
text
 62
1
100
AcDbPolyline
 90
2
 70
0
 10
24.161897
 20
196.328642
 30
0.0
 10
24.161897
 20
198.690490
 30
0.0
  0
LWPOLYLINE
  5
190
100
AcDbEntity
  8
text
 62
1
100
AcDbPolyline
 90
2
 70
0
 10
30.885900
 20
245.953844
 30
0.0
 10
26.431265
 20
237.935488
 30
0.0
  0
LWPOLYLINE
  5
191
100
AcDbEntity
  8
text
 62
1
100
AcDbPolyline
 90
2
 70
0
 10
30.885900
 20
245.953844
 30
0.0
 10
22.689371
 20
241.855583
 30
0.0
  0
LWPOLYLINE
  5
192
100
AcDbEntity
  8
text
 62
1
100
AcDbPolyline
 90
2
 70
0
 10
30.885900
 20
245.953844
 30
0.0
 10
21.798446
 20
247.022959
 30
0.0
  0
LWPOLYLINE
  5
193
100
AcDbEntity
  8
text
 62
1
100
AcDbPolyline
 90
2
 70
0
 10
30.885900
 20
245.953844
 30
0.0
 10
23.936669
 20
251.833973
 30
0.0
  0
LWPOLYLINE
  5
194
100
AcDbEntity
  8
text
 62
1
100
AcDbPolyline
 90
2
 70
0
 10
30.885900
 20
245.953844
 30
0.0
 10
28.391304
 20
254.684925
 30
0.0
  0
LWPOLYLINE
  5
195
100
AcDbEntity
  8
text
 62
1
100
AcDbPolyline
 90
2
 70
0
 10
30.885900
 20
245.953844
 30
0.0
 10
33.380493
 20
254.684925
 30
0.0
  0
LWPOLYLINE
  5
196
100
AcDbEntity
  8
text
 62
1
100
AcDbPolyline
 90
2
 70
0
 10
30.885900
 20
245.953844
 30
0.0
 10
37.835128
 20
251.833973
 30
0.0
  0
LWPOLYLINE
  5
197
100
AcDbEntity
  8
text
 62
1
100
AcDbPolyline
 90
2
 70
0
 10
30.885900
 20
245.953844
 30
0.0
 10
39.973354
 20
247.022959
 30
0.0
  0
LWPOLYLINE
  5
198
100
AcDbEntity
  8
text
 62
1
100
AcDbPolyline
 90
2
 70
0
 10
30.885900
 20
245.953844
 30
0.0
 10
39.082426
 20
241.855583
 30
0.0
  0
LWPOLYLINE
  5
199
100
AcDbEntity
  8
text
 62
1
100
AcDbPolyline
 90
2
 70
0
 10
30.885900
 20
245.953844
 30
0.0
 10
35.518719
 20
237.935488
 30
0.0
  0
LWPOLYLINE
  5
19a
100
AcDbEntity
  8
text
 62
1
100
AcDbPolyline
 90
2
 70
0
 10
30.885900
 20
245.953844
 30
0.0
 10
26.965822
 20
239.004602
 30
0.0
  0
LWPOLYLINE
  5
19b
100
AcDbEntity
  8
text
 62
1
100
AcDbPolyline
 90
2
 70
0
 10
30.885900
 20
245.953844
 30
0.0
 10
25.896708
 20
239.539159
 30
0.0
  0
LWPOLYLINE
  5
19c
100
AcDbEntity
  8
text
 62
1
100
AcDbPolyline
 90
2
 70
0
 10
30.885900
 20
245.953844
 30
0.0
 10
25.005780
 20
240.430106
 30
0.0
  0
LWPOLYLINE
  5
19d
100
AcDbEntity
  8
text
 62
1
100
AcDbPolyline
 90
2
 70
0
 10
30.885900
 20
245.953844
 30
0.0
 10
24.293039
 20
241.321026
 30
0.0
  0
LWPOLYLINE
  5
19e
100
AcDbEntity
  8
text
 62
1
100
AcDbPolyline
 90
2
 70
0
 10
30.885900
 20
245.953844
 30
0.0
 10
23.580298
 20
242.390140
 30
0.0
  0
LWPOLYLINE
  5
19f
100
AcDbEntity
  8
text
 62
1
100
AcDbPolyline
 90
2
 70
0
 10
30.885900
 20
245.953844
 30
0.0
 10
23.223928
 20
243.459254
 30
0.0
  0
LWPOLYLINE
  5
1a0
100
AcDbEntity
  8
text
 62
1
100
AcDbPolyline
 90
2
 70
0
 10
30.885900
 20
245.953844
 30
0.0
 10
22.867557
 20
244.706535
 30
0.0
  0
LWPOLYLINE
  5
1a1
100
AcDbEntity
  8
text
 62
1
100
AcDbPolyline
 90
2
 70
0
 10
30.885900
 20
245.953844
 30
0.0
 10
22.867557
 20
245.775649
 30
0.0
  0
LWPOLYLINE
  5
1a2
100
AcDbEntity
  8
text
 62
1
100
AcDbPolyline
 90
2
 70
0
 10
30.885900
 20
245.953844
 30
0.0
 10
22.867557
 20
246.844764
 30
0.0
  0
LWPOLYLINE
  5
1a3
100
AcDbEntity
  8
text
 62
1
100
AcDbPolyline
 90
2
 70
0
 10
30.885900
 20
245.953844
 30
0.0
 10
23.045741
 20
247.913878
 30
0.0
  0
LWPOLYLINE
  5
1a4
100
AcDbEntity
  8
text
 62
1
100
AcDbPolyline
 90
2
 70
0
 10
30.885900
 20
245.953844
 30
0.0
 10
23.402114
 20
249.161187
 30
0.0
  0
LWPOLYLINE
  5
1a5
100
AcDbEntity
  8
text
 62
1
100
AcDbPolyline
 90
2
 70
0
 10
30.885900
 20
245.953844
 30
0.0
 10
23.936669
 20
250.230301
 30
0.0
  0
LWPOLYLINE
  5
1a6
100
AcDbEntity
  8
text
 62
1
100
AcDbPolyline
 90
2
 70
0
 10
30.885900
 20
245.953844
 30
0.0
 10
24.649410
 20
251.121220
 30
0.0
  0
LWPOLYLINE
  5
1a7
100
AcDbEntity
  8
text
 62
1
100
AcDbPolyline
 90
2
 70
0
 10
30.885900
 20
245.953844
 30
0.0
 10
25.540337
 20
252.012140
 30
0.0
  0
LWPOLYLINE
  5
1a8
100
AcDbEntity
  8
text
 62
1
100
AcDbPolyline
 90
2
 70
0
 10
30.885900
 20
245.953844
 30
0.0
 10
26.431265
 20
252.724892
 30
0.0
  0
LWPOLYLINE
  5
1a9
100
AcDbEntity
  8
text
 62
1
100
AcDbPolyline
 90
2
 70
0
 10
30.885900
 20
245.953844
 30
0.0
 10
27.500376
 20
253.259449
 30
0.0
  0
LWPOLYLINE
  5
1aa
100
AcDbEntity
  8
text
 62
1
100
AcDbPolyline
 90
2
 70
0
 10
30.885900
 20
245.953844
 30
0.0
 10
28.569490
 20
253.794006
 30
0.0
  0
LWPOLYLINE
  5
1ab
100
AcDbEntity
  8
text
 62
1
100
AcDbPolyline
 90
2
 70
0
 10
30.885900
 20
245.953844
 30
0.0
 10
29.816786
 20
253.972173
 30
0.0
  0
LWPOLYLINE
  5
1ac
100
AcDbEntity
  8
text
 62
1
100
AcDbPolyline
 90
2
 70
0
 10
30.885900
 20
245.953844
 30
0.0
 10
30.885900
 20
254.150368
 30
0.0
  0
LWPOLYLINE
  5
1ad
100
AcDbEntity
  8
text
 62
1
100
AcDbPolyline
 90
2
 70
0
 10
30.885900
 20
245.953844
 30
0.0
 10
31.955011
 20
253.972173
 30
0.0
  0
LWPOLYLINE
  5
1ae
100
AcDbEntity
  8
text
 62
1
100
AcDbPolyline
 90
2
 70
0
 10
30.885900
 20
245.953844
 30
0.0
 10
33.202309
 20
253.794006
 30
0.0
  0
LWPOLYLINE
  5
1af
100
AcDbEntity
  8
text
 62
1
100
AcDbPolyline
 90
2
 70
0
 10
30.885900
 20
245.953844
 30
0.0
 10
34.271421
 20
253.259449
 30
0.0
  0
LWPOLYLINE
  5
1b0
100
AcDbEntity
  8
text
 62
1
100
AcDbPolyline
 90
2
 70
0
 10
30.885900
 20
245.953844
 30
0.0
 10
35.340532
 20
252.724892
 30
0.0
  0
LWPOLYLINE
  5
1b1
100
AcDbEntity
  8
text
 62
1
100
AcDbPolyline
 90
2
 70
0
 10
30.885900
 20
245.953844
 30
0.0
 10
36.231460
 20
252.012140
 30
0.0
  0
LWPOLYLINE
  5
1b2
100
AcDbEntity
  8
text
 62
1
100
AcDbPolyline
 90
2
 70
0
 10
30.885900
 20
245.953844
 30
0.0
 10
37.122387
 20
251.121220
 30
0.0
  0
LWPOLYLINE
  5
1b3
100
AcDbEntity
  8
text
 62
1
100
AcDbPolyline
 90
2
 70
0
 10
30.885900
 20
245.953844
 30
0.0
 10
37.835128
 20
250.230301
 30
0.0
  0
LWPOLYLINE
  5
1b4
100
AcDbEntity
  8
text
 62
1
100
AcDbPolyline
 90
2
 70
0
 10
30.885900
 20
245.953844
 30
0.0
 10
38.369685
 20
249.161187
 30
0.0
  0
LWPOLYLINE
  5
1b5
100
AcDbEntity
  8
text
 62
1
100
AcDbPolyline
 90
2
 70
0
 10
30.885900
 20
245.953844
 30
0.0
 10
38.726056
 20
247.913878
 30
0.0
  0
LWPOLYLINE
  5
1b6
100
AcDbEntity
  8
text
 62
1
100
AcDbPolyline
 90
2
 70
0
 10
30.885900
 20
245.953844
 30
0.0
 10
38.904242
 20
246.844764
 30
0.0
  0
LWPOLYLINE
  5
1b7
100
AcDbEntity
  8
text
 62
1
100
AcDbPolyline
 90
2
 70
0
 10
30.885900
 20
245.953844
 30
0.0
 10
38.904242
 20
245.775649
 30
0.0
  0
LWPOLYLINE
  5
1b8
100
AcDbEntity
  8
text
 62
1
100
AcDbPolyline
 90
2
 70
0
 10
30.885900
 20
245.953844
 30
0.0
 10
38.904242
 20
244.706535
 30
0.0
  0
LWPOLYLINE
  5
1b9
100
AcDbEntity
  8
text
 62
1
100
AcDbPolyline
 90
2
 70
0
 10
30.885900
 20
245.953844
 30
0.0
 10
38.547869
 20
243.459254
 30
0.0
  0
LWPOLYLINE
  5
1ba
100
AcDbEntity
  8
text
 62
1
100
AcDbPolyline
 90
2
 70
0
 10
30.885900
 20
245.953844
 30
0.0
 10
38.191499
 20
242.390140
 30
0.0
  0
LWPOLYLINE
  5
1bb
100
AcDbEntity
  8
text
 62
1
100
AcDbPolyline
 90
2
 70
0
 10
30.885900
 20
245.953844
 30
0.0
 10
37.478758
 20
241.321026
 30
0.0
  0
LWPOLYLINE
  5
1bc
100
AcDbEntity
  8
text
 62
1
100
AcDbPolyline
 90
2
 70
0
 10
30.885900
 20
245.953844
 30
0.0
 10
36.766017
 20
240.430106
 30
0.0
  0
LWPOLYLINE
  5
1bd
100
AcDbEntity
  8
text
 62
1
100
AcDbPolyline
 90
2
 70
0
 10
30.885900
 20
245.953844
 30
0.0
 10
35.875089
 20
239.539159
 30
0.0
  0
SPLINE
  5
1be
100
AcDbEntity
  8
text
 62
1
100
AcDbSpline
 70
8
 71
3
 72
8
 73
4
 74
0
 40
0
 40
0
 40
0
 40
0
 40
1
 40
1
 40
1
 40
1
 10
28.213117
 20
245.953844
 30
0.0
 10
28.213117
 20
247.557516
 30
0.0
 10
29.282231
 20
248.626630
 30
0.0
 10
30.885900
 20
248.626630
 30
0.0
  0
SPLINE
  5
1bf
100
AcDbEntity
  8
text
 62
1
100
AcDbSpline
 70
8
 71
3
 72
8
 73
4
 74
0
 40
0
 40
0
 40
0
 40
0
 40
1
 40
1
 40
1
 40
1
 10
30.885900
 20
248.626630
 30
0.0
 10
32.489568
 20
248.626630
 30
0.0
 10
33.558680
 20
247.557516
 30
0.0
 10
33.558680
 20
245.953844
 30
0.0
  0
SPLINE
  5
1c0
100
AcDbEntity
  8
text
 62
1
100
AcDbSpline
 70
8
 71
3
 72
8
 73
4
 74
0
 40
0
 40
0
 40
0
 40
0
 40
1
 40
1
 40
1
 40
1
 10
33.558680
 20
245.953844
 30
0.0
 10
33.558680
 20
244.350173
 30
0.0
 10
32.489568
 20
243.281059
 30
0.0
 10
30.885900
 20
243.281059
 30
0.0
  0
SPLINE
  5
1c1
100
AcDbEntity
  8
text
 62
1
100
AcDbSpline
 70
8
 71
3
 72
8
 73
4
 74
0
 40
0
 40
0
 40
0
 40
0
 40
1
 40
1
 40
1
 40
1
 10
30.885900
 20
243.281059
 30
0.0
 10
29.282231
 20
243.281059
 30
0.0
 10
28.213117
 20
244.350173
 30
0.0
 10
28.213117
 20
245.953844
 30
0.0
  0
LWPOLYLINE
  5
1c2
100
AcDbEntity
  8
text
 62
1
100
AcDbPolyline
 90
2
 70
0
 10
30.885900
 20
245.953844
 30
0.0
 10
34.984162
 20
239.004602
 30
0.0
  0
LWPOLYLINE
  5
1c3
100
AcDbEntity
  8
text
 62
1
100
AcDbPolyline
 90
2
 70
0
 10
29.816786
 20
245.953844
 30
0.0
 10
31.955011
 20
245.953844
 30
0.0
  0
SPLINE
  5
1c4
100
AcDbEntity
  8
text
 62
7
100
AcDbSpline
 70
8
 71
3
 72
8
 73
4
 74
0
 40
0
 40
0
 40
0
 40
0
 40
1
 40
1
 40
1
 40
1
 10
31.097784
 20
245.899514
 30
0.0
 10
31.097784
 20
245.780225
 30
0.0
 10
30.990337
 20
245.683523
 30
0.0
 10
30.857792
 20
245.683523
 30
0.0
  0
SPLINE
  5
1c5
100
AcDbEntity
  8
text
 62
7
100
AcDbSpline
 70
8
 71
3
 72
8
 73
4
 74
0
 40
0
 40
0
 40
0
 40
0
 40
1
 40
1
 40
1
 40
1
 10
30.857792
 20
245.683523
 30
0.0
 10
30.725251
 20
245.683523
 30
0.0
 10
30.617801
 20
245.780225
 30
0.0
 10
30.617801
 20
245.899514
 30
0.0
  0
SPLINE
  5
1c6
100
AcDbEntity
  8
text
 62
7
100
AcDbSpline
 70
8
 71
3
 72
8
 73
4
 74
0
 40
0
 40
0
 40
0
 40
0
 40
1
 40
1
 40
1
 40
1
 10
30.617801
 20
245.899514
 30
0.0
 10
30.617801
 20
246.018803
 30
0.0
 10
30.725251
 20
246.115506
 30
0.0
 10
30.857792
 20
246.115506
 30
0.0
  0
SPLINE
  5
1c7
100
AcDbEntity
  8
text
 62
7
100
AcDbSpline
 70
8
 71
3
 72
8
 73
4
 74
0
 40
0
 40
0
 40
0
 40
0
 40
1
 40
1
 40
1
 40
1
 10
30.857792
 20
246.115506
 30
0.0
 10
30.990337
 20
246.115506
 30
0.0
 10
31.097784
 20
246.018803
 30
0.0
 10
31.097784
 20
245.899514
 30
0.0
  0
LWPOLYLINE
  5
1c8
100
AcDbEntity
  8
text
 62
1
100
AcDbPolyline
 90
2
 70
0
 10
30.885900
 20
244.884730
 30
0.0
 10
30.885900
 20
247.022959
 30
0.0
  0
LWPOLYLINE
  5
1c9
100
AcDbEntity
  8
text
 62
7
100
AcDbPolyline
 90
2
 70
1
 10
31.097784
 20
245.899514
 30
0.0
 10
31.097784
 20
245.899514
 30
0.0
  0
LWPOLYLINE
  5
1ca
100
AcDbEntity
  8
text
 62
1
100
AcDbPolyline
 90
2
 70
0
 10
30.945677
 20
196.671943
 30
0.0
 10
26.491042
 20
188.653587
 30
0.0
  0
LWPOLYLINE
  5
1cb
100
AcDbEntity
  8
text
 62
1
100
AcDbPolyline
 90
2
 70
0
 10
30.945677
 20
196.671943
 30
0.0
 10
22.749148
 20
192.573681
 30
0.0
  0
LWPOLYLINE
  5
1cc
100
AcDbEntity
  8
text
 62
1
100
AcDbPolyline
 90
2
 70
0
 10
30.945677
 20
196.671943
 30
0.0
 10
21.858223
 20
197.741057
 30
0.0
  0
LWPOLYLINE
  5
1cd
100
AcDbEntity
  8
text
 62
1
100
AcDbPolyline
 90
2
 70
0
 10
30.945677
 20
196.671943
 30
0.0
 10
23.996446
 20
202.552071
 30
0.0
  0
LWPOLYLINE
  5
1ce
100
AcDbEntity
  8
text
 62
1
100
AcDbPolyline
 90
2
 70
0
 10
30.945677
 20
196.671943
 30
0.0
 10
28.451081
 20
205.403024
 30
0.0
  0
LWPOLYLINE
  5
1cf
100
AcDbEntity
  8
text
 62
1
100
AcDbPolyline
 90
2
 70
0
 10
30.945677
 20
196.671943
 30
0.0
 10
33.440271
 20
205.403024
 30
0.0
  0
LWPOLYLINE
  5
1d0
100
AcDbEntity
  8
text
 62
1
100
AcDbPolyline
 90
2
 70
0
 10
30.945677
 20
196.671943
 30
0.0
 10
37.894906
 20
202.552071
 30
0.0
  0
LWPOLYLINE
  5
1d1
100
AcDbEntity
  8
text
 62
1
100
AcDbPolyline
 90
2
 70
0
 10
30.945677
 20
196.671943
 30
0.0
 10
40.033131
 20
197.741057
 30
0.0
  0
LWPOLYLINE
  5
1d2
100
AcDbEntity
  8
text
 62
1
100
AcDbPolyline
 90
2
 70
0
 10
30.945677
 20
196.671943
 30
0.0
 10
39.142204
 20
192.573681
 30
0.0
  0
LWPOLYLINE
  5
1d3
100
AcDbEntity
  8
text
 62
1
100
AcDbPolyline
 90
2
 70
0
 10
30.945677
 20
196.671943
 30
0.0
 10
35.578496
 20
188.653587
 30
0.0
  0
LWPOLYLINE
  5
1d4
100
AcDbEntity
  8
text
 62
1
100
AcDbPolyline
 90
2
 70
0
 10
30.945677
 20
196.671943
 30
0.0
 10
27.025599
 20
189.722701
 30
0.0
  0
LWPOLYLINE
  5
1d5
100
AcDbEntity
  8
text
 62
1
100
AcDbPolyline
 90
2
 70
0
 10
30.945677
 20
196.671943
 30
0.0
 10
25.956485
 20
190.257258
 30
0.0
  0
LWPOLYLINE
  5
1d6
100
AcDbEntity
  8
text
 62
1
100
AcDbPolyline
 90
2
 70
0
 10
30.945677
 20
196.671943
 30
0.0
 10
25.065558
 20
191.148205
 30
0.0
  0
LWPOLYLINE
  5
1d7
100
AcDbEntity
  8
text
 62
1
100
AcDbPolyline
 90
2
 70
0
 10
30.945677
 20
196.671943
 30
0.0
 10
24.352817
 20
192.039124
 30
0.0
  0
LWPOLYLINE
  5
1d8
100
AcDbEntity
  8
text
 62
1
100
AcDbPolyline
 90
2
 70
0
 10
30.945677
 20
196.671943
 30
0.0
 10
23.640076
 20
193.108239
 30
0.0
  0
LWPOLYLINE
  5
1d9
100
AcDbEntity
  8
text
 62
1
100
AcDbPolyline
 90
2
 70
0
 10
30.945677
 20
196.671943
 30
0.0
 10
23.283705
 20
194.177353
 30
0.0
  0
LWPOLYLINE
  5
1da
100
AcDbEntity
  8
text
 62
1
100
AcDbPolyline
 90
2
 70
0
 10
30.945677
 20
196.671943
 30
0.0
 10
22.927335
 20
195.424634
 30
0.0
  0
LWPOLYLINE
  5
1db
100
AcDbEntity
  8
text
 62
1
100
AcDbPolyline
 90
2
 70
0
 10
30.945677
 20
196.671943
 30
0.0
 10
22.927335
 20
196.493748
 30
0.0
  0
LWPOLYLINE
  5
1dc
100
AcDbEntity
  8
text
 62
1
100
AcDbPolyline
 90
2
 70
0
 10
30.945677
 20
196.671943
 30
0.0
 10
22.927335
 20
197.562862
 30
0.0
  0
LWPOLYLINE
  5
1dd
100
AcDbEntity
  8
text
 62
1
100
AcDbPolyline
 90
2
 70
0
 10
30.945677
 20
196.671943
 30
0.0
 10
23.105519
 20
198.631977
 30
0.0
  0
LWPOLYLINE
  5
1de
100
AcDbEntity
  8
text
 62
1
100
AcDbPolyline
 90
2
 70
0
 10
30.945677
 20
196.671943
 30
0.0
 10
23.461892
 20
199.879286
 30
0.0
  0
LWPOLYLINE
  5
1df
100
AcDbEntity
  8
text
 62
1
100
AcDbPolyline
 90
2
 70
0
 10
30.945677
 20
196.671943
 30
0.0
 10
23.996446
 20
200.948400
 30
0.0
  0
LWPOLYLINE
  5
1e0
100
AcDbEntity
  8
text
 62
1
100
AcDbPolyline
 90
2
 70
0
 10
30.945677
 20
196.671943
 30
0.0
 10
24.709187
 20
201.839319
 30
0.0
  0
LWPOLYLINE
  5
1e1
100
AcDbEntity
  8
text
 62
1
100
AcDbPolyline
 90
2
 70
0
 10
30.945677
 20
196.671943
 30
0.0
 10
25.600115
 20
202.730238
 30
0.0
  0
LWPOLYLINE
  5
1e2
100
AcDbEntity
  8
text
 62
1
100
AcDbPolyline
 90
2
 70
0
 10
30.945677
 20
196.671943
 30
0.0
 10
26.491042
 20
203.442991
 30
0.0
  0
LWPOLYLINE
  5
1e3
100
AcDbEntity
  8
text
 62
1
100
AcDbPolyline
 90
2
 70
0
 10
30.945677
 20
196.671943
 30
0.0
 10
27.560154
 20
203.977548
 30
0.0
  0
LWPOLYLINE
  5
1e4
100
AcDbEntity
  8
text
 62
1
100
AcDbPolyline
 90
2
 70
0
 10
30.945677
 20
196.671943
 30
0.0
 10
28.629268
 20
204.512105
 30
0.0
  0
LWPOLYLINE
  5
1e5
100
AcDbEntity
  8
text
 62
1
100
AcDbPolyline
 90
2
 70
0
 10
30.945677
 20
196.671943
 30
0.0
 10
29.876563
 20
204.690272
 30
0.0
  0
LWPOLYLINE
  5
1e6
100
AcDbEntity
  8
text
 62
1
100
AcDbPolyline
 90
2
 70
0
 10
30.945677
 20
196.671943
 30
0.0
 10
30.945677
 20
204.868467
 30
0.0
  0
LWPOLYLINE
  5
1e7
100
AcDbEntity
  8
text
 62
1
100
AcDbPolyline
 90
2
 70
0
 10
30.945677
 20
196.671943
 30
0.0
 10
32.014789
 20
204.690272
 30
0.0
  0
LWPOLYLINE
  5
1e8
100
AcDbEntity
  8
text
 62
1
100
AcDbPolyline
 90
2
 70
0
 10
30.945677
 20
196.671943
 30
0.0
 10
33.262087
 20
204.512105
 30
0.0
  0
LWPOLYLINE
  5
1e9
100
AcDbEntity
  8
text
 62
1
100
AcDbPolyline
 90
2
 70
0
 10
30.945677
 20
196.671943
 30
0.0
 10
34.331198
 20
203.977548
 30
0.0
  0
LWPOLYLINE
  5
1ea
100
AcDbEntity
  8
text
 62
1
100
AcDbPolyline
 90
2
 70
0
 10
30.945677
 20
196.671943
 30
0.0
 10
35.400310
 20
203.442991
 30
0.0
  0
LWPOLYLINE
  5
1eb
100
AcDbEntity
  8
text
 62
1
100
AcDbPolyline
 90
2
 70
0
 10
30.945677
 20
196.671943
 30
0.0
 10
36.291237
 20
202.730238
 30
0.0
  0
LWPOLYLINE
  5
1ec
100
AcDbEntity
  8
text
 62
1
100
AcDbPolyline
 90
2
 70
0
 10
30.945677
 20
196.671943
 30
0.0
 10
37.182165
 20
201.839319
 30
0.0
  0
LWPOLYLINE
  5
1ed
100
AcDbEntity
  8
text
 62
1
100
AcDbPolyline
 90
2
 70
0
 10
30.945677
 20
196.671943
 30
0.0
 10
37.894906
 20
200.948400
 30
0.0
  0
LWPOLYLINE
  5
1ee
100
AcDbEntity
  8
text
 62
1
100
AcDbPolyline
 90
2
 70
0
 10
30.945677
 20
196.671943
 30
0.0
 10
38.429463
 20
199.879286
 30
0.0
  0
LWPOLYLINE
  5
1ef
100
AcDbEntity
  8
text
 62
1
100
AcDbPolyline
 90
2
 70
0
 10
30.945677
 20
196.671943
 30
0.0
 10
38.785833
 20
198.631977
 30
0.0
  0
LWPOLYLINE
  5
1f0
100
AcDbEntity
  8
text
 62
1
100
AcDbPolyline
 90
2
 70
0
 10
30.945677
 20
196.671943
 30
0.0
 10
38.964020
 20
197.562862
 30
0.0
  0
LWPOLYLINE
  5
1f1
100
AcDbEntity
  8
text
 62
1
100
AcDbPolyline
 90
2
 70
0
 10
30.945677
 20
196.671943
 30
0.0
 10
38.964020
 20
196.493748
 30
0.0
  0
LWPOLYLINE
  5
1f2
100
AcDbEntity
  8
text
 62
1
100
AcDbPolyline
 90
2
 70
0
 10
30.945677
 20
196.671943
 30
0.0
 10
38.964020
 20
195.424634
 30
0.0
  0
LWPOLYLINE
  5
1f3
100
AcDbEntity
  8
text
 62
1
100
AcDbPolyline
 90
2
 70
0
 10
30.945677
 20
196.671943
 30
0.0
 10
38.607647
 20
194.177353
 30
0.0
  0
LWPOLYLINE
  5
1f4
100
AcDbEntity
  8
text
 62
1
100
AcDbPolyline
 90
2
 70
0
 10
30.945677
 20
196.671943
 30
0.0
 10
38.251276
 20
193.108239
 30
0.0
  0
LWPOLYLINE
  5
1f5
100
AcDbEntity
  8
text
 62
1
100
AcDbPolyline
 90
2
 70
0
 10
30.945677
 20
196.671943
 30
0.0
 10
37.538535
 20
192.039124
 30
0.0
  0
LWPOLYLINE
  5
1f6
100
AcDbEntity
  8
text
 62
1
100
AcDbPolyline
 90
2
 70
0
 10
30.945677
 20
196.671943
 30
0.0
 10
36.825794
 20
191.148205
 30
0.0
  0
LWPOLYLINE
  5
1f7
100
AcDbEntity
  8
text
 62
1
100
AcDbPolyline
 90
2
 70
0
 10
30.945677
 20
196.671943
 30
0.0
 10
35.934867
 20
190.257258
 30
0.0
  0
SPLINE
  5
1f8
100
AcDbEntity
  8
text
 62
1
100
AcDbSpline
 70
8
 71
3
 72
8
 73
4
 74
0
 40
0
 40
0
 40
0
 40
0
 40
1
 40
1
 40
1
 40
1
 10
28.272895
 20
196.671943
 30
0.0
 10
28.272895
 20
198.275615
 30
0.0
 10
29.342009
 20
199.344729
 30
0.0
 10
30.945677
 20
199.344729
 30
0.0
  0
SPLINE
  5
1f9
100
AcDbEntity
  8
text
 62
1
100
AcDbSpline
 70
8
 71
3
 72
8
 73
4
 74
0
 40
0
 40
0
 40
0
 40
0
 40
1
 40
1
 40
1
 40
1
 10
30.945677
 20
199.344729
 30
0.0
 10
32.549346
 20
199.344729
 30
0.0
 10
33.618457
 20
198.275615
 30
0.0
 10
33.618457
 20
196.671943
 30
0.0
  0
SPLINE
  5
1fa
100
AcDbEntity
  8
text
 62
1
100
AcDbSpline
 70
8
 71
3
 72
8
 73
4
 74
0
 40
0
 40
0
 40
0
 40
0
 40
1
 40
1
 40
1
 40
1
 10
33.618457
 20
196.671943
 30
0.0
 10
33.618457
 20
195.068272
 30
0.0
 10
32.549346
 20
193.999158
 30
0.0
 10
30.945677
 20
193.999158
 30
0.0
  0
SPLINE
  5
1fb
100
AcDbEntity
  8
text
 62
1
100
AcDbSpline
 70
8
 71
3
 72
8
 73
4
 74
0
 40
0
 40
0
 40
0
 40
0
 40
1
 40
1
 40
1
 40
1
 10
30.945677
 20
193.999158
 30
0.0
 10
29.342009
 20
193.999158
 30
0.0
 10
28.272895
 20
195.068272
 30
0.0
 10
28.272895
 20
196.671943
 30
0.0
  0
LWPOLYLINE
  5
1fc
100
AcDbEntity
  8
text
 62
1
100
AcDbPolyline
 90
2
 70
0
 10
30.945677
 20
196.671943
 30
0.0
 10
35.043939
 20
189.722701
 30
0.0
  0
LWPOLYLINE
  5
1fd
100
AcDbEntity
  8
text
 62
1
100
AcDbPolyline
 90
2
 70
0
 10
29.876563
 20
196.671943
 30
0.0
 10
32.014789
 20
196.671943
 30
0.0
  0
SPLINE
  5
1fe
100
AcDbEntity
  8
text
 62
7
100
AcDbSpline
 70
8
 71
3
 72
8
 73
4
 74
0
 40
0
 40
0
 40
0
 40
0
 40
1
 40
1
 40
1
 40
1
 10
31.157561
 20
196.617613
 30
0.0
 10
31.157561
 20
196.498324
 30
0.0
 10
31.050114
 20
196.401621
 30
0.0
 10
30.917570
 20
196.401621
 30
0.0
  0
SPLINE
  5
1ff
100
AcDbEntity
  8
text
 62
7
100
AcDbSpline
 70
8
 71
3
 72
8
 73
4
 74
0
 40
0
 40
0
 40
0
 40
0
 40
1
 40
1
 40
1
 40
1
 10
30.917570
 20
196.401621
 30
0.0
 10
30.785028
 20
196.401621
 30
0.0
 10
30.677578
 20
196.498324
 30
0.0
 10
30.677578
 20
196.617613
 30
0.0
  0
SPLINE
  5
200
100
AcDbEntity
  8
text
 62
7
100
AcDbSpline
 70
8
 71
3
 72
8
 73
4
 74
0
 40
0
 40
0
 40
0
 40
0
 40
1
 40
1
 40
1
 40
1
 10
30.677578
 20
196.617613
 30
0.0
 10
30.677578
 20
196.736902
 30
0.0
 10
30.785028
 20
196.833605
 30
0.0
 10
30.917570
 20
196.833605
 30
0.0
  0
SPLINE
  5
201
100
AcDbEntity
  8
text
 62
7
100
AcDbSpline
 70
8
 71
3
 72
8
 73
4
 74
0
 40
0
 40
0
 40
0
 40
0
 40
1
 40
1
 40
1
 40
1
 10
30.917570
 20
196.833605
 30
0.0
 10
31.050114
 20
196.833605
 30
0.0
 10
31.157561
 20
196.736902
 30
0.0
 10
31.157561
 20
196.617613
 30
0.0
  0
LWPOLYLINE
  5
202
100
AcDbEntity
  8
text
 62
1
100
AcDbPolyline
 90
2
 70
0
 10
30.945677
 20
195.602829
 30
0.0
 10
30.945677
 20
197.741057
 30
0.0
  0
LWPOLYLINE
  5
203
100
AcDbEntity
  8
text
 62
7
100
AcDbPolyline
 90
2
 70
1
 10
31.157561
 20
196.617613
 30
0.0
 10
31.157561
 20
196.617613
 30
0.0
  0
LWPOLYLINE
  5
204
100
AcDbEntity
  8
text
 62
1
100
AcDbPolyline
 90
2
 70
0
 10
30.945677
 20
180.117719
 30
0.0
 10
26.491042
 20
172.099362
 30
0.0
  0
LWPOLYLINE
  5
205
100
AcDbEntity
  8
text
 62
1
100
AcDbPolyline
 90
2
 70
0
 10
30.945677
 20
180.117719
 30
0.0
 10
22.749148
 20
176.019457
 30
0.0
  0
LWPOLYLINE
  5
206
100
AcDbEntity
  8
text
 62
1
100
AcDbPolyline
 90
2
 70
0
 10
30.945677
 20
180.117719
 30
0.0
 10
21.858223
 20
181.186833
 30
0.0
  0
LWPOLYLINE
  5
207
100
AcDbEntity
  8
text
 62
1
100
AcDbPolyline
 90
2
 70
0
 10
30.945677
 20
180.117719
 30
0.0
 10
23.996446
 20
185.997847
 30
0.0
  0
LWPOLYLINE
  5
208
100
AcDbEntity
  8
text
 62
1
100
AcDbPolyline
 90
2
 70
0
 10
30.945677
 20
180.117719
 30
0.0
 10
28.451081
 20
188.848800
 30
0.0
  0
LWPOLYLINE
  5
209
100
AcDbEntity
  8
text
 62
1
100
AcDbPolyline
 90
2
 70
0
 10
30.945677
 20
180.117719
 30
0.0
 10
33.440271
 20
188.848800
 30
0.0
  0
LWPOLYLINE
  5
20a
100
AcDbEntity
  8
text
 62
1
100
AcDbPolyline
 90
2
 70
0
 10
30.945677
 20
180.117719
 30
0.0
 10
37.894906
 20
185.997847
 30
0.0
  0
LWPOLYLINE
  5
20b
100
AcDbEntity
  8
text
 62
1
100
AcDbPolyline
 90
2
 70
0
 10
30.945677
 20
180.117719
 30
0.0
 10
40.033131
 20
181.186833
 30
0.0
  0
LWPOLYLINE
  5
20c
100
AcDbEntity
  8
text
 62
1
100
AcDbPolyline
 90
2
 70
0
 10
30.945677
 20
180.117719
 30
0.0
 10
39.142204
 20
176.019457
 30
0.0
  0
LWPOLYLINE
  5
20d
100
AcDbEntity
  8
text
 62
1
100
AcDbPolyline
 90
2
 70
0
 10
30.945677
 20
180.117719
 30
0.0
 10
35.578496
 20
172.099362
 30
0.0
  0
LWPOLYLINE
  5
20e
100
AcDbEntity
  8
text
 62
1
100
AcDbPolyline
 90
2
 70
0
 10
30.945677
 20
180.117719
 30
0.0
 10
27.025599
 20
173.168477
 30
0.0
  0
LWPOLYLINE
  5
20f
100
AcDbEntity
  8
text
 62
1
100
AcDbPolyline
 90
2
 70
0
 10
30.945677
 20
180.117719
 30
0.0
 10
25.956485
 20
173.703034
 30
0.0
  0
LWPOLYLINE
  5
210
100
AcDbEntity
  8
text
 62
1
100
AcDbPolyline
 90
2
 70
0
 10
30.945677
 20
180.117719
 30
0.0
 10
25.065558
 20
174.593981
 30
0.0
  0
LWPOLYLINE
  5
211
100
AcDbEntity
  8
text
 62
1
100
AcDbPolyline
 90
2
 70
0
 10
30.945677
 20
180.117719
 30
0.0
 10
24.352817
 20
175.484900
 30
0.0
  0
LWPOLYLINE
  5
212
100
AcDbEntity
  8
text
 62
1
100
AcDbPolyline
 90
2
 70
0
 10
30.945677
 20
180.117719
 30
0.0
 10
23.640076
 20
176.554014
 30
0.0
  0
LWPOLYLINE
  5
213
100
AcDbEntity
  8
text
 62
1
100
AcDbPolyline
 90
2
 70
0
 10
30.945677
 20
180.117719
 30
0.0
 10
23.283705
 20
177.623129
 30
0.0
  0
LWPOLYLINE
  5
214
100
AcDbEntity
  8
text
 62
1
100
AcDbPolyline
 90
2
 70
0
 10
30.945677
 20
180.117719
 30
0.0
 10
22.927335
 20
178.870410
 30
0.0
  0
LWPOLYLINE
  5
215
100
AcDbEntity
  8
text
 62
1
100
AcDbPolyline
 90
2
 70
0
 10
30.945677
 20
180.117719
 30
0.0
 10
22.927335
 20
179.939524
 30
0.0
  0
LWPOLYLINE
  5
216
100
AcDbEntity
  8
text
 62
1
100
AcDbPolyline
 90
2
 70
0
 10
30.945677
 20
180.117719
 30
0.0
 10
22.927335
 20
181.008638
 30
0.0
  0
LWPOLYLINE
  5
217
100
AcDbEntity
  8
text
 62
1
100
AcDbPolyline
 90
2
 70
0
 10
30.945677
 20
180.117719
 30
0.0
 10
23.105519
 20
182.077752
 30
0.0
  0
LWPOLYLINE
  5
218
100
AcDbEntity
  8
text
 62
1
100
AcDbPolyline
 90
2
 70
0
 10
30.945677
 20
180.117719
 30
0.0
 10
23.461892
 20
183.325062
 30
0.0
  0
LWPOLYLINE
  5
219
100
AcDbEntity
  8
text
 62
1
100
AcDbPolyline
 90
2
 70
0
 10
30.945677
 20
180.117719
 30
0.0
 10
23.996446
 20
184.394176
 30
0.0
  0
LWPOLYLINE
  5
21a
100
AcDbEntity
  8
text
 62
1
100
AcDbPolyline
 90
2
 70
0
 10
30.945677
 20
180.117719
 30
0.0
 10
24.709187
 20
185.285095
 30
0.0
  0
LWPOLYLINE
  5
21b
100
AcDbEntity
  8
text
 62
1
100
AcDbPolyline
 90
2
 70
0
 10
30.945677
 20
180.117719
 30
0.0
 10
25.600115
 20
186.176014
 30
0.0
  0
LWPOLYLINE
  5
21c
100
AcDbEntity
  8
text
 62
1
100
AcDbPolyline
 90
2
 70
0
 10
30.945677
 20
180.117719
 30
0.0
 10
26.491042
 20
186.888766
 30
0.0
  0
LWPOLYLINE
  5
21d
100
AcDbEntity
  8
text
 62
1
100
AcDbPolyline
 90
2
 70
0
 10
30.945677
 20
180.117719
 30
0.0
 10
27.560154
 20
187.423323
 30
0.0
  0
LWPOLYLINE
  5
21e
100
AcDbEntity
  8
text
 62
1
100
AcDbPolyline
 90
2
 70
0
 10
30.945677
 20
180.117719
 30
0.0
 10
28.629268
 20
187.957881
 30
0.0
  0
LWPOLYLINE
  5
21f
100
AcDbEntity
  8
text
 62
1
100
AcDbPolyline
 90
2
 70
0
 10
30.945677
 20
180.117719
 30
0.0
 10
29.876563
 20
188.136047
 30
0.0
  0
LWPOLYLINE
  5
220
100
AcDbEntity
  8
text
 62
1
100
AcDbPolyline
 90
2
 70
0
 10
30.945677
 20
180.117719
 30
0.0
 10
30.945677
 20
188.314243
 30
0.0
  0
LWPOLYLINE
  5
221
100
AcDbEntity
  8
text
 62
1
100
AcDbPolyline
 90
2
 70
0
 10
30.945677
 20
180.117719
 30
0.0
 10
32.014789
 20
188.136047
 30
0.0
  0
LWPOLYLINE
  5
222
100
AcDbEntity
  8
text
 62
1
100
AcDbPolyline
 90
2
 70
0
 10
30.945677
 20
180.117719
 30
0.0
 10
33.262087
 20
187.957881
 30
0.0
  0
LWPOLYLINE
  5
223
100
AcDbEntity
  8
text
 62
1
100
AcDbPolyline
 90
2
 70
0
 10
30.945677
 20
180.117719
 30
0.0
 10
34.331198
 20
187.423323
 30
0.0
  0
LWPOLYLINE
  5
224
100
AcDbEntity
  8
text
 62
1
100
AcDbPolyline
 90
2
 70
0
 10
30.945677
 20
180.117719
 30
0.0
 10
35.400310
 20
186.888766
 30
0.0
  0
LWPOLYLINE
  5
225
100
AcDbEntity
  8
text
 62
1
100
AcDbPolyline
 90
2
 70
0
 10
30.945677
 20
180.117719
 30
0.0
 10
36.291237
 20
186.176014
 30
0.0
  0
LWPOLYLINE
  5
226
100
AcDbEntity
  8
text
 62
1
100
AcDbPolyline
 90
2
 70
0
 10
30.945677
 20
180.117719
 30
0.0
 10
37.182165
 20
185.285095
 30
0.0
  0
LWPOLYLINE
  5
227
100
AcDbEntity
  8
text
 62
1
100
AcDbPolyline
 90
2
 70
0
 10
30.945677
 20
180.117719
 30
0.0
 10
37.894906
 20
184.394176
 30
0.0
  0
LWPOLYLINE
  5
228
100
AcDbEntity
  8
text
 62
1
100
AcDbPolyline
 90
2
 70
0
 10
30.945677
 20
180.117719
 30
0.0
 10
38.429463
 20
183.325062
 30
0.0
  0
LWPOLYLINE
  5
229
100
AcDbEntity
  8
text
 62
1
100
AcDbPolyline
 90
2
 70
0
 10
30.945677
 20
180.117719
 30
0.0
 10
38.785833
 20
182.077752
 30
0.0
  0
LWPOLYLINE
  5
22a
100
AcDbEntity
  8
text
 62
1
100
AcDbPolyline
 90
2
 70
0
 10
30.945677
 20
180.117719
 30
0.0
 10
38.964020
 20
181.008638
 30
0.0
  0
LWPOLYLINE
  5
22b
100
AcDbEntity
  8
text
 62
1
100
AcDbPolyline
 90
2
 70
0
 10
30.945677
 20
180.117719
 30
0.0
 10
38.964020
 20
179.939524
 30
0.0
  0
LWPOLYLINE
  5
22c
100
AcDbEntity
  8
text
 62
1
100
AcDbPolyline
 90
2
 70
0
 10
30.945677
 20
180.117719
 30
0.0
 10
38.964020
 20
178.870410
 30
0.0
  0
LWPOLYLINE
  5
22d
100
AcDbEntity
  8
text
 62
1
100
AcDbPolyline
 90
2
 70
0
 10
30.945677
 20
180.117719
 30
0.0
 10
38.607647
 20
177.623129
 30
0.0
  0
LWPOLYLINE
  5
22e
100
AcDbEntity
  8
text
 62
1
100
AcDbPolyline
 90
2
 70
0
 10
30.945677
 20
180.117719
 30
0.0
 10
38.251276
 20
176.554014
 30
0.0
  0
LWPOLYLINE
  5
22f
100
AcDbEntity
  8
text
 62
1
100
AcDbPolyline
 90
2
 70
0
 10
30.945677
 20
180.117719
 30
0.0
 10
37.538535
 20
175.484900
 30
0.0
  0
LWPOLYLINE
  5
230
100
AcDbEntity
  8
text
 62
1
100
AcDbPolyline
 90
2
 70
0
 10
30.945677
 20
180.117719
 30
0.0
 10
36.825794
 20
174.593981
 30
0.0
  0
LWPOLYLINE
  5
231
100
AcDbEntity
  8
text
 62
1
100
AcDbPolyline
 90
2
 70
0
 10
30.945677
 20
180.117719
 30
0.0
 10
35.934867
 20
173.703034
 30
0.0
  0
SPLINE
  5
232
100
AcDbEntity
  8
text
 62
1
100
AcDbSpline
 70
8
 71
3
 72
8
 73
4
 74
0
 40
0
 40
0
 40
0
 40
0
 40
1
 40
1
 40
1
 40
1
 10
28.272895
 20
180.117719
 30
0.0
 10
28.272895
 20
181.721390
 30
0.0
 10
29.342009
 20
182.790505
 30
0.0
 10
30.945677
 20
182.790505
 30
0.0
  0
SPLINE
  5
233
100
AcDbEntity
  8
text
 62
1
100
AcDbSpline
 70
8
 71
3
 72
8
 73
4
 74
0
 40
0
 40
0
 40
0
 40
0
 40
1
 40
1
 40
1
 40
1
 10
30.945677
 20
182.790505
 30
0.0
 10
32.549346
 20
182.790505
 30
0.0
 10
33.618457
 20
181.721390
 30
0.0
 10
33.618457
 20
180.117719
 30
0.0
  0
SPLINE
  5
234
100
AcDbEntity
  8
text
 62
1
100
AcDbSpline
 70
8
 71
3
 72
8
 73
4
 74
0
 40
0
 40
0
 40
0
 40
0
 40
1
 40
1
 40
1
 40
1
 10
33.618457
 20
180.117719
 30
0.0
 10
33.618457
 20
178.514048
 30
0.0
 10
32.549346
 20
177.444933
 30
0.0
 10
30.945677
 20
177.444933
 30
0.0
  0
SPLINE
  5
235
100
AcDbEntity
  8
text
 62
1
100
AcDbSpline
 70
8
 71
3
 72
8
 73
4
 74
0
 40
0
 40
0
 40
0
 40
0
 40
1
 40
1
 40
1
 40
1
 10
30.945677
 20
177.444933
 30
0.0
 10
29.342009
 20
177.444933
 30
0.0
 10
28.272895
 20
178.514048
 30
0.0
 10
28.272895
 20
180.117719
 30
0.0
  0
LWPOLYLINE
  5
236
100
AcDbEntity
  8
text
 62
1
100
AcDbPolyline
 90
2
 70
0
 10
30.945677
 20
180.117719
 30
0.0
 10
35.043939
 20
173.168477
 30
0.0
  0
LWPOLYLINE
  5
237
100
AcDbEntity
  8
text
 62
1
100
AcDbPolyline
 90
2
 70
0
 10
29.876563
 20
180.117719
 30
0.0
 10
32.014789
 20
180.117719
 30
0.0
  0
SPLINE
  5
238
100
AcDbEntity
  8
text
 62
7
100
AcDbSpline
 70
8
 71
3
 72
8
 73
4
 74
0
 40
0
 40
0
 40
0
 40
0
 40
1
 40
1
 40
1
 40
1
 10
31.157561
 20
180.063389
 30
0.0
 10
31.157561
 20
179.944100
 30
0.0
 10
31.050114
 20
179.847397
 30
0.0
 10
30.917570
 20
179.847397
 30
0.0
  0
SPLINE
  5
239
100
AcDbEntity
  8
text
 62
7
100
AcDbSpline
 70
8
 71
3
 72
8
 73
4
 74
0
 40
0
 40
0
 40
0
 40
0
 40
1
 40
1
 40
1
 40
1
 10
30.917570
 20
179.847397
 30
0.0
 10
30.785028
 20
179.847397
 30
0.0
 10
30.677578
 20
179.944100
 30
0.0
 10
30.677578
 20
180.063389
 30
0.0
  0
SPLINE
  5
23a
100
AcDbEntity
  8
text
 62
7
100
AcDbSpline
 70
8
 71
3
 72
8
 73
4
 74
0
 40
0
 40
0
 40
0
 40
0
 40
1
 40
1
 40
1
 40
1
 10
30.677578
 20
180.063389
 30
0.0
 10
30.677578
 20
180.182678
 30
0.0
 10
30.785028
 20
180.279381
 30
0.0
 10
30.917570
 20
180.279381
 30
0.0
  0
SPLINE
  5
23b
100
AcDbEntity
  8
text
 62
7
100
AcDbSpline
 70
8
 71
3
 72
8
 73
4
 74
0
 40
0
 40
0
 40
0
 40
0
 40
1
 40
1
 40
1
 40
1
 10
30.917570
 20
180.279381
 30
0.0
 10
31.050114
 20
180.279381
 30
0.0
 10
31.157561
 20
180.182678
 30
0.0
 10
31.157561
 20
180.063389
 30
0.0
  0
LWPOLYLINE
  5
23c
100
AcDbEntity
  8
text
 62
1
100
AcDbPolyline
 90
2
 70
0
 10
30.945677
 20
179.048605
 30
0.0
 10
30.945677
 20
181.186833
 30
0.0
  0
LWPOLYLINE
  5
23d
100
AcDbEntity
  8
text
 62
7
100
AcDbPolyline
 90
2
 70
1
 10
31.157561
 20
180.063389
 30
0.0
 10
31.157561
 20
180.063389
 30
0.0
  0
LWPOLYLINE
  5
23e
100
AcDbEntity
  8
text
 62
1
100
AcDbPolyline
 90
2
 70
0
 10
30.885900
 20
163.544956
 30
0.0
 10
26.431265
 20
155.526599
 30
0.0
  0
LWPOLYLINE
  5
23f
100
AcDbEntity
  8
text
 62
1
100
AcDbPolyline
 90
2
 70
0
 10
30.885900
 20
163.544956
 30
0.0
 10
22.689371
 20
159.446694
 30
0.0
  0
LWPOLYLINE
  5
240
100
AcDbEntity
  8
text
 62
1
100
AcDbPolyline
 90
2
 70
0
 10
30.885900
 20
163.544956
 30
0.0
 10
21.798446
 20
164.614070
 30
0.0
  0
LWPOLYLINE
  5
241
100
AcDbEntity
  8
text
 62
1
100
AcDbPolyline
 90
2
 70
0
 10
30.885900
 20
163.544956
 30
0.0
 10
23.936669
 20
169.425084
 30
0.0
  0
LWPOLYLINE
  5
242
100
AcDbEntity
  8
text
 62
1
100
AcDbPolyline
 90
2
 70
0
 10
30.885900
 20
163.544956
 30
0.0
 10
28.391304
 20
172.276036
 30
0.0
  0
LWPOLYLINE
  5
243
100
AcDbEntity
  8
text
 62
1
100
AcDbPolyline
 90
2
 70
0
 10
30.885900
 20
163.544956
 30
0.0
 10
33.380493
 20
172.276036
 30
0.0
  0
LWPOLYLINE
  5
244
100
AcDbEntity
  8
text
 62
1
100
AcDbPolyline
 90
2
 70
0
 10
30.885900
 20
163.544956
 30
0.0
 10
37.835128
 20
169.425084
 30
0.0
  0
LWPOLYLINE
  5
245
100
AcDbEntity
  8
text
 62
1
100
AcDbPolyline
 90
2
 70
0
 10
30.885900
 20
163.544956
 30
0.0
 10
39.973354
 20
164.614070
 30
0.0
  0
LWPOLYLINE
  5
246
100
AcDbEntity
  8
text
 62
1
100
AcDbPolyline
 90
2
 70
0
 10
30.885900
 20
163.544956
 30
0.0
 10
39.082426
 20
159.446694
 30
0.0
  0
LWPOLYLINE
  5
247
100
AcDbEntity
  8
text
 62
1
100
AcDbPolyline
 90
2
 70
0
 10
30.885900
 20
163.544956
 30
0.0
 10
35.518719
 20
155.526599
 30
0.0
  0
LWPOLYLINE
  5
248
100
AcDbEntity
  8
text
 62
1
100
AcDbPolyline
 90
2
 70
0
 10
30.885900
 20
163.544956
 30
0.0
 10
26.965822
 20
156.595713
 30
0.0
  0
LWPOLYLINE
  5
249
100
AcDbEntity
  8
text
 62
1
100
AcDbPolyline
 90
2
 70
0
 10
30.885900
 20
163.544956
 30
0.0
 10
25.896708
 20
157.130270
 30
0.0
  0
LWPOLYLINE
  5
24a
100
AcDbEntity
  8
text
 62
1
100
AcDbPolyline
 90
2
 70
0
 10
30.885900
 20
163.544956
 30
0.0
 10
25.005780
 20
158.021218
 30
0.0
  0
LWPOLYLINE
  5
24b
100
AcDbEntity
  8
text
 62
1
100
AcDbPolyline
 90
2
 70
0
 10
30.885900
 20
163.544956
 30
0.0
 10
24.293039
 20
158.912137
 30
0.0
  0
LWPOLYLINE
  5
24c
100
AcDbEntity
  8
text
 62
1
100
AcDbPolyline
 90
2
 70
0
 10
30.885900
 20
163.544956
 30
0.0
 10
23.580298
 20
159.981251
 30
0.0
  0
LWPOLYLINE
  5
24d
100
AcDbEntity
  8
text
 62
1
100
AcDbPolyline
 90
2
 70
0
 10
30.885900
 20
163.544956
 30
0.0
 10
23.223928
 20
161.050365
 30
0.0
  0
LWPOLYLINE
  5
24e
100
AcDbEntity
  8
text
 62
1
100
AcDbPolyline
 90
2
 70
0
 10
30.885900
 20
163.544956
 30
0.0
 10
22.867557
 20
162.297646
 30
0.0
  0
LWPOLYLINE
  5
24f
100
AcDbEntity
  8
text
 62
1
100
AcDbPolyline
 90
2
 70
0
 10
30.885900
 20
163.544956
 30
0.0
 10
22.867557
 20
163.366760
 30
0.0
  0
LWPOLYLINE
  5
250
100
AcDbEntity
  8
text
 62
1
100
AcDbPolyline
 90
2
 70
0
 10
30.885900
 20
163.544956
 30
0.0
 10
22.867557
 20
164.435875
 30
0.0
  0
LWPOLYLINE
  5
251
100
AcDbEntity
  8
text
 62
1
100
AcDbPolyline
 90
2
 70
0
 10
30.885900
 20
163.544956
 30
0.0
 10
23.045741
 20
165.504989
 30
0.0
  0
LWPOLYLINE
  5
252
100
AcDbEntity
  8
text
 62
1
100
AcDbPolyline
 90
2
 70
0
 10
30.885900
 20
163.544956
 30
0.0
 10
23.402114
 20
166.752298
 30
0.0
  0
LWPOLYLINE
  5
253
100
AcDbEntity
  8
text
 62
1
100
AcDbPolyline
 90
2
 70
0
 10
30.885900
 20
163.544956
 30
0.0
 10
23.936669
 20
167.821412
 30
0.0
  0
LWPOLYLINE
  5
254
100
AcDbEntity
  8
text
 62
1
100
AcDbPolyline
 90
2
 70
0
 10
30.885900
 20
163.544956
 30
0.0
 10
24.649410
 20
168.712332
 30
0.0
  0
LWPOLYLINE
  5
255
100
AcDbEntity
  8
text
 62
1
100
AcDbPolyline
 90
2
 70
0
 10
30.885900
 20
163.544956
 30
0.0
 10
25.540337
 20
169.603251
 30
0.0
  0
LWPOLYLINE
  5
256
100
AcDbEntity
  8
text
 62
1
100
AcDbPolyline
 90
2
 70
0
 10
30.885900
 20
163.544956
 30
0.0
 10
26.431265
 20
170.316003
 30
0.0
  0
LWPOLYLINE
  5
257
100
AcDbEntity
  8
text
 62
1
100
AcDbPolyline
 90
2
 70
0
 10
30.885900
 20
163.544956
 30
0.0
 10
27.500376
 20
170.850560
 30
0.0
  0
LWPOLYLINE
  5
258
100
AcDbEntity
  8
text
 62
1
100
AcDbPolyline
 90
2
 70
0
 10
30.885900
 20
163.544956
 30
0.0
 10
28.569490
 20
171.385117
 30
0.0
  0
LWPOLYLINE
  5
259
100
AcDbEntity
  8
text
 62
1
100
AcDbPolyline
 90
2
 70
0
 10
30.885900
 20
163.544956
 30
0.0
 10
29.816786
 20
171.563284
 30
0.0
  0
LWPOLYLINE
  5
25a
100
AcDbEntity
  8
text
 62
1
100
AcDbPolyline
 90
2
 70
0
 10
30.885900
 20
163.544956
 30
0.0
 10
30.885900
 20
171.741479
 30
0.0
  0
LWPOLYLINE
  5
25b
100
AcDbEntity
  8
text
 62
1
100
AcDbPolyline
 90
2
 70
0
 10
30.885900
 20
163.544956
 30
0.0
 10
31.955011
 20
171.563284
 30
0.0
  0
LWPOLYLINE
  5
25c
100
AcDbEntity
  8
text
 62
1
100
AcDbPolyline
 90
2
 70
0
 10
30.885900
 20
163.544956
 30
0.0
 10
33.202309
 20
171.385117
 30
0.0
  0
LWPOLYLINE
  5
25d
100
AcDbEntity
  8
text
 62
1
100
AcDbPolyline
 90
2
 70
0
 10
30.885900
 20
163.544956
 30
0.0
 10
34.271421
 20
170.850560
 30
0.0
  0
LWPOLYLINE
  5
25e
100
AcDbEntity
  8
text
 62
1
100
AcDbPolyline
 90
2
 70
0
 10
30.885900
 20
163.544956
 30
0.0
 10
35.340532
 20
170.316003
 30
0.0
  0
LWPOLYLINE
  5
25f
100
AcDbEntity
  8
text
 62
1
100
AcDbPolyline
 90
2
 70
0
 10
30.885900
 20
163.544956
 30
0.0
 10
36.231460
 20
169.603251
 30
0.0
  0
LWPOLYLINE
  5
260
100
AcDbEntity
  8
text
 62
1
100
AcDbPolyline
 90
2
 70
0
 10
30.885900
 20
163.544956
 30
0.0
 10
37.122387
 20
168.712332
 30
0.0
  0
LWPOLYLINE
  5
261
100
AcDbEntity
  8
text
 62
1
100
AcDbPolyline
 90
2
 70
0
 10
30.885900
 20
163.544956
 30
0.0
 10
37.835128
 20
167.821412
 30
0.0
  0
LWPOLYLINE
  5
262
100
AcDbEntity
  8
text
 62
1
100
AcDbPolyline
 90
2
 70
0
 10
30.885900
 20
163.544956
 30
0.0
 10
38.369685
 20
166.752298
 30
0.0
  0
LWPOLYLINE
  5
263
100
AcDbEntity
  8
text
 62
1
100
AcDbPolyline
 90
2
 70
0
 10
30.885900
 20
163.544956
 30
0.0
 10
38.726056
 20
165.504989
 30
0.0
  0
LWPOLYLINE
  5
264
100
AcDbEntity
  8
text
 62
1
100
AcDbPolyline
 90
2
 70
0
 10
30.885900
 20
163.544956
 30
0.0
 10
38.904242
 20
164.435875
 30
0.0
  0
LWPOLYLINE
  5
265
100
AcDbEntity
  8
text
 62
1
100
AcDbPolyline
 90
2
 70
0
 10
30.885900
 20
163.544956
 30
0.0
 10
38.904242
 20
163.366760
 30
0.0
  0
LWPOLYLINE
  5
266
100
AcDbEntity
  8
text
 62
1
100
AcDbPolyline
 90
2
 70
0
 10
30.885900
 20
163.544956
 30
0.0
 10
38.904242
 20
162.297646
 30
0.0
  0
LWPOLYLINE
  5
267
100
AcDbEntity
  8
text
 62
1
100
AcDbPolyline
 90
2
 70
0
 10
30.885900
 20
163.544956
 30
0.0
 10
38.547869
 20
161.050365
 30
0.0
  0
LWPOLYLINE
  5
268
100
AcDbEntity
  8
text
 62
1
100
AcDbPolyline
 90
2
 70
0
 10
30.885900
 20
163.544956
 30
0.0
 10
38.191499
 20
159.981251
 30
0.0
  0
LWPOLYLINE
  5
269
100
AcDbEntity
  8
text
 62
1
100
AcDbPolyline
 90
2
 70
0
 10
30.885900
 20
163.544956
 30
0.0
 10
37.478758
 20
158.912137
 30
0.0
  0
LWPOLYLINE
  5
26a
100
AcDbEntity
  8
text
 62
1
100
AcDbPolyline
 90
2
 70
0
 10
30.885900
 20
163.544956
 30
0.0
 10
36.766017
 20
158.021218
 30
0.0
  0
LWPOLYLINE
  5
26b
100
AcDbEntity
  8
text
 62
1
100
AcDbPolyline
 90
2
 70
0
 10
30.885900
 20
163.544956
 30
0.0
 10
35.875089
 20
157.130270
 30
0.0
  0
SPLINE
  5
26c
100
AcDbEntity
  8
text
 62
1
100
AcDbSpline
 70
8
 71
3
 72
8
 73
4
 74
0
 40
0
 40
0
 40
0
 40
0
 40
1
 40
1
 40
1
 40
1
 10
28.213117
 20
163.544956
 30
0.0
 10
28.213117
 20
165.148627
 30
0.0
 10
29.282231
 20
166.217741
 30
0.0
 10
30.885900
 20
166.217741
 30
0.0
  0
SPLINE
  5
26d
100
AcDbEntity
  8
text
 62
1
100
AcDbSpline
 70
8
 71
3
 72
8
 73
4
 74
0
 40
0
 40
0
 40
0
 40
0
 40
1
 40
1
 40
1
 40
1
 10
30.885900
 20
166.217741
 30
0.0
 10
32.489568
 20
166.217741
 30
0.0
 10
33.558680
 20
165.148627
 30
0.0
 10
33.558680
 20
163.544956
 30
0.0
  0
SPLINE
  5
26e
100
AcDbEntity
  8
text
 62
1
100
AcDbSpline
 70
8
 71
3
 72
8
 73
4
 74
0
 40
0
 40
0
 40
0
 40
0
 40
1
 40
1
 40
1
 40
1
 10
33.558680
 20
163.544956
 30
0.0
 10
33.558680
 20
161.941284
 30
0.0
 10
32.489568
 20
160.872170
 30
0.0
 10
30.885900
 20
160.872170
 30
0.0
  0
SPLINE
  5
26f
100
AcDbEntity
  8
text
 62
1
100
AcDbSpline
 70
8
 71
3
 72
8
 73
4
 74
0
 40
0
 40
0
 40
0
 40
0
 40
1
 40
1
 40
1
 40
1
 10
30.885900
 20
160.872170
 30
0.0
 10
29.282231
 20
160.872170
 30
0.0
 10
28.213117
 20
161.941284
 30
0.0
 10
28.213117
 20
163.544956
 30
0.0
  0
LWPOLYLINE
  5
270
100
AcDbEntity
  8
text
 62
1
100
AcDbPolyline
 90
2
 70
0
 10
30.885900
 20
163.544956
 30
0.0
 10
34.984162
 20
156.595713
 30
0.0
  0
LWPOLYLINE
  5
271
100
AcDbEntity
  8
text
 62
1
100
AcDbPolyline
 90
2
 70
0
 10
29.816786
 20
163.544956
 30
0.0
 10
31.955011
 20
163.544956
 30
0.0
  0
SPLINE
  5
272
100
AcDbEntity
  8
text
 62
7
100
AcDbSpline
 70
8
 71
3
 72
8
 73
4
 74
0
 40
0
 40
0
 40
0
 40
0
 40
1
 40
1
 40
1
 40
1
 10
31.097784
 20
163.490625
 30
0.0
 10
31.097784
 20
163.371337
 30
0.0
 10
30.990337
 20
163.274634
 30
0.0
 10
30.857792
 20
163.274634
 30
0.0
  0
SPLINE
  5
273
100
AcDbEntity
  8
text
 62
7
100
AcDbSpline
 70
8
 71
3
 72
8
 73
4
 74
0
 40
0
 40
0
 40
0
 40
0
 40
1
 40
1
 40
1
 40
1
 10
30.857792
 20
163.274634
 30
0.0
 10
30.725251
 20
163.274634
 30
0.0
 10
30.617801
 20
163.371337
 30
0.0
 10
30.617801
 20
163.490625
 30
0.0
  0
SPLINE
  5
274
100
AcDbEntity
  8
text
 62
7
100
AcDbSpline
 70
8
 71
3
 72
8
 73
4
 74
0
 40
0
 40
0
 40
0
 40
0
 40
1
 40
1
 40
1
 40
1
 10
30.617801
 20
163.490625
 30
0.0
 10
30.617801
 20
163.609914
 30
0.0
 10
30.725251
 20
163.706617
 30
0.0
 10
30.857792
 20
163.706617
 30
0.0
  0
SPLINE
  5
275
100
AcDbEntity
  8
text
 62
7
100
AcDbSpline
 70
8
 71
3
 72
8
 73
4
 74
0
 40
0
 40
0
 40
0
 40
0
 40
1
 40
1
 40
1
 40
1
 10
30.857792
 20
163.706617
 30
0.0
 10
30.990337
 20
163.706617
 30
0.0
 10
31.097784
 20
163.609914
 30
0.0
 10
31.097784
 20
163.490625
 30
0.0
  0
LWPOLYLINE
  5
276
100
AcDbEntity
  8
text
 62
1
100
AcDbPolyline
 90
2
 70
0
 10
30.885900
 20
162.475841
 30
0.0
 10
30.885900
 20
164.614070
 30
0.0
  0
SPLINE
  5
277
100
AcDbEntity
  8
text
 62
1
100
AcDbSpline
 70
8
 71
3
 72
8
 73
4
 74
0
 40
0
 40
0
 40
0
 40
0
 40
1
 40
1
 40
1
 40
1
 10
47.738741
 20
233.721159
 30
0.0
 10
47.738741
 20
235.492104
 30
0.0
 10
48.919841
 20
236.672851
 30
0.0
 10
50.690786
 20
236.672851
 30
0.0
  0
SPLINE
  5
278
100
AcDbEntity
  8
text
 62
1
100
AcDbSpline
 70
8
 71
3
 72
8
 73
4
 74
0
 40
0
 40
0
 40
0
 40
0
 40
1
 40
1
 40
1
 40
1
 10
50.690786
 20
236.672851
 30
0.0
 10
52.462788
 20
236.672851
 30
0.0
 10
53.642477
 20
235.492104
 30
0.0
 10
53.642477
 20
233.721159
 30
0.0
  0
SPLINE
  5
279
100
AcDbEntity
  8
text
 62
1
100
AcDbSpline
 70
8
 71
3
 72
8
 73
4
 74
0
 40
0
 40
0
 40
0
 40
0
 40
1
 40
1
 40
1
 40
1
 10
53.642477
 20
233.721159
 30
0.0
 10
53.642477
 20
231.950568
 30
0.0
 10
52.462788
 20
230.769468
 30
0.0
 10
50.690786
 20
230.769468
 30
0.0
  0
SPLINE
  5
27a
100
AcDbEntity
  8
text
 62
1
100
AcDbSpline
 70
8
 71
3
 72
8
 73
4
 74
0
 40
0
 40
0
 40
0
 40
0
 40
1
 40
1
 40
1
 40
1
 10
50.690786
 20
230.769468
 30
0.0
 10
48.919841
 20
230.769468
 30
0.0
 10
47.738741
 20
231.950568
 30
0.0
 10
47.738741
 20
233.721159
 30
0.0
  0
LWPOLYLINE
  5
27b
100
AcDbEntity
  8
text
 62
7
100
AcDbPolyline
 90
2
 70
1
 10
31.097784
 20
163.490625
 30
0.0
 10
31.097784
 20
163.490625
 30
0.0
  0
LWPOLYLINE
  5
27c
100
AcDbEntity
  8
text
 62
1
100
AcDbPolyline
 90
2
 70
0
 10
49.511097
 20
233.721159
 30
0.0
 10
51.871533
 20
233.721159
 30
0.0
  0
SPLINE
  5
27d
100
AcDbEntity
  8
text
 62
1
100
AcDbSpline
 70
8
 71
3
 72
8
 73
4
 74
0
 40
0
 40
0
 40
0
 40
0
 40
1
 40
1
 40
1
 40
1
 10
47.738741
 20
221.303382
 30
0.0
 10
47.738741
 20
223.074326
 30
0.0
 10
48.919841
 20
224.255073
 30
0.0
 10
50.690786
 20
224.255073
 30
0.0
  0
SPLINE
  5
27e
100
AcDbEntity
  8
text
 62
1
100
AcDbSpline
 70
8
 71
3
 72
8
 73
4
 74
0
 40
0
 40
0
 40
0
 40
0
 40
1
 40
1
 40
1
 40
1
 10
50.690786
 20
224.255073
 30
0.0
 10
52.462788
 20
224.255073
 30
0.0
 10
53.642477
 20
223.074326
 30
0.0
 10
53.642477
 20
221.303382
 30
0.0
  0
SPLINE
  5
27f
100
AcDbEntity
  8
text
 62
1
100
AcDbSpline
 70
8
 71
3
 72
8
 73
4
 74
0
 40
0
 40
0
 40
0
 40
0
 40
1
 40
1
 40
1
 40
1
 10
53.642477
 20
221.303382
 30
0.0
 10
53.642477
 20
219.532790
 30
0.0
 10
52.462788
 20
218.351690
 30
0.0
 10
50.690786
 20
218.351690
 30
0.0
  0
SPLINE
  5
280
100
AcDbEntity
  8
text
 62
1
100
AcDbSpline
 70
8
 71
3
 72
8
 73
4
 74
0
 40
0
 40
0
 40
0
 40
0
 40
1
 40
1
 40
1
 40
1
 10
50.690786
 20
218.351690
 30
0.0
 10
48.919841
 20
218.351690
 30
0.0
 10
47.738741
 20
219.532790
 30
0.0
 10
47.738741
 20
221.303382
 30
0.0
  0
LWPOLYLINE
  5
281
100
AcDbEntity
  8
text
 62
1
100
AcDbPolyline
 90
2
 70
0
 10
50.690786
 20
232.540412
 30
0.0
 10
50.690786
 20
234.902259
 30
0.0
  0
LWPOLYLINE
  5
282
100
AcDbEntity
  8
text
 62
1
100
AcDbPolyline
 90
2
 70
0
 10
49.511097
 20
221.303382
 30
0.0
 10
51.871533
 20
221.303382
 30
0.0
  0
SPLINE
  5
283
100
AcDbEntity
  8
text
 62
1
100
AcDbSpline
 70
8
 71
3
 72
8
 73
4
 74
0
 40
0
 40
0
 40
0
 40
0
 40
1
 40
1
 40
1
 40
1
 10
47.738741
 20
208.321159
 30
0.0
 10
47.738741
 20
210.092104
 30
0.0
 10
48.919841
 20
211.272851
 30
0.0
 10
50.690786
 20
211.272851
 30
0.0
  0
SPLINE
  5
284
100
AcDbEntity
  8
text
 62
1
100
AcDbSpline
 70
8
 71
3
 72
8
 73
4
 74
0
 40
0
 40
0
 40
0
 40
0
 40
1
 40
1
 40
1
 40
1
 10
50.690786
 20
211.272851
 30
0.0
 10
52.462788
 20
211.272851
 30
0.0
 10
53.642477
 20
210.092104
 30
0.0
 10
53.642477
 20
208.321159
 30
0.0
  0
SPLINE
  5
285
100
AcDbEntity
  8
text
 62
1
100
AcDbSpline
 70
8
 71
3
 72
8
 73
4
 74
0
 40
0
 40
0
 40
0
 40
0
 40
1
 40
1
 40
1
 40
1
 10
53.642477
 20
208.321159
 30
0.0
 10
53.642477
 20
206.550568
 30
0.0
 10
52.462788
 20
205.369468
 30
0.0
 10
50.690786
 20
205.369468
 30
0.0
  0
SPLINE
  5
286
100
AcDbEntity
  8
text
 62
1
100
AcDbSpline
 70
8
 71
3
 72
8
 73
4
 74
0
 40
0
 40
0
 40
0
 40
0
 40
1
 40
1
 40
1
 40
1
 10
50.690786
 20
205.369468
 30
0.0
 10
48.919841
 20
205.369468
 30
0.0
 10
47.738741
 20
206.550568
 30
0.0
 10
47.738741
 20
208.321159
 30
0.0
  0
LWPOLYLINE
  5
287
100
AcDbEntity
  8
text
 62
1
100
AcDbPolyline
 90
2
 70
0
 10
50.690786
 20
220.122634
 30
0.0
 10
50.690786
 20
222.484482
 30
0.0
  0
LWPOLYLINE
  5
288
100
AcDbEntity
  8
text
 62
1
100
AcDbPolyline
 90
2
 70
0
 10
49.511097
 20
208.321159
 30
0.0
 10
51.871533
 20
208.321159
 30
0.0
  0
SPLINE
  5
289
100
AcDbEntity
  8
text
 62
1
100
AcDbSpline
 70
8
 71
3
 72
8
 73
4
 74
0
 40
0
 40
0
 40
0
 40
0
 40
1
 40
1
 40
1
 40
1
 10
62.978741
 20
158.085604
 30
0.0
 10
62.978741
 20
159.856548
 30
0.0
 10
64.159841
 20
161.037295
 30
0.0
 10
65.930786
 20
161.037295
 30
0.0
  0
SPLINE
  5
28a
100
AcDbEntity
  8
text
 62
1
100
AcDbSpline
 70
8
 71
3
 72
8
 73
4
 74
0
 40
0
 40
0
 40
0
 40
0
 40
1
 40
1
 40
1
 40
1
 10
65.930786
 20
161.037295
 30
0.0
 10
67.702788
 20
161.037295
 30
0.0
 10
68.882477
 20
159.856548
 30
0.0
 10
68.882477
 20
158.085604
 30
0.0
  0
SPLINE
  5
28b
100
AcDbEntity
  8
text
 62
1
100
AcDbSpline
 70
8
 71
3
 72
8
 73
4
 74
0
 40
0
 40
0
 40
0
 40
0
 40
1
 40
1
 40
1
 40
1
 10
68.882477
 20
158.085604
 30
0.0
 10
68.882477
 20
156.315012
 30
0.0
 10
67.702788
 20
155.133912
 30
0.0
 10
65.930786
 20
155.133912
 30
0.0
  0
SPLINE
  5
28c
100
AcDbEntity
  8
text
 62
1
100
AcDbSpline
 70
8
 71
3
 72
8
 73
4
 74
0
 40
0
 40
0
 40
0
 40
0
 40
1
 40
1
 40
1
 40
1
 10
65.930786
 20
155.133912
 30
0.0
 10
64.159841
 20
155.133912
 30
0.0
 10
62.978741
 20
156.315012
 30
0.0
 10
62.978741
 20
158.085604
 30
0.0
  0
LWPOLYLINE
  5
28d
100
AcDbEntity
  8
text
 62
1
100
AcDbPolyline
 90
2
 70
0
 10
50.690786
 20
207.140412
 30
0.0
 10
50.690786
 20
209.502259
 30
0.0
  0
LWPOLYLINE
  5
28e
100
AcDbEntity
  8
text
 62
1
100
AcDbPolyline
 90
2
 70
0
 10
64.751097
 20
158.085604
 30
0.0
 10
67.111533
 20
158.085604
 30
0.0
  0
SPLINE
  5
28f
100
AcDbEntity
  8
text
 62
1
100
AcDbSpline
 70
8
 71
3
 72
8
 73
4
 74
0
 40
0
 40
0
 40
0
 40
0
 40
1
 40
1
 40
1
 40
1
 10
47.738741
 20
175.018937
 30
0.0
 10
47.738741
 20
176.789882
 30
0.0
 10
48.919841
 20
177.970629
 30
0.0
 10
50.690786
 20
177.970629
 30
0.0
  0
SPLINE
  5
290
100
AcDbEntity
  8
text
 62
1
100
AcDbSpline
 70
8
 71
3
 72
8
 73
4
 74
0
 40
0
 40
0
 40
0
 40
0
 40
1
 40
1
 40
1
 40
1
 10
50.690786
 20
177.970629
 30
0.0
 10
52.462788
 20
177.970629
 30
0.0
 10
53.642477
 20
176.789882
 30
0.0
 10
53.642477
 20
175.018937
 30
0.0
  0
SPLINE
  5
291
100
AcDbEntity
  8
text
 62
1
100
AcDbSpline
 70
8
 71
3
 72
8
 73
4
 74
0
 40
0
 40
0
 40
0
 40
0
 40
1
 40
1
 40
1
 40
1
 10
53.642477
 20
175.018937
 30
0.0
 10
53.642477
 20
173.248345
 30
0.0
 10
52.462788
 20
172.067245
 30
0.0
 10
50.690786
 20
172.067245
 30
0.0
  0
SPLINE
  5
292
100
AcDbEntity
  8
text
 62
1
100
AcDbSpline
 70
8
 71
3
 72
8
 73
4
 74
0
 40
0
 40
0
 40
0
 40
0
 40
1
 40
1
 40
1
 40
1
 10
50.690786
 20
172.067245
 30
0.0
 10
48.919841
 20
172.067245
 30
0.0
 10
47.738741
 20
173.248345
 30
0.0
 10
47.738741
 20
175.018937
 30
0.0
  0
LWPOLYLINE
  5
293
100
AcDbEntity
  8
text
 62
1
100
AcDbPolyline
 90
2
 70
0
 10
65.930786
 20
156.904857
 30
0.0
 10
65.930786
 20
159.266704
 30
0.0
  0
LWPOLYLINE
  5
294
100
AcDbEntity
  8
text
 62
1
100
AcDbPolyline
 90
2
 70
0
 10
49.511097
 20
175.018937
 30
0.0
 10
51.871533
 20
175.018937
 30
0.0
  0
LWPOLYLINE
  5
295
100
AcDbEntity
  8
text
 62
1
100
AcDbPolyline
 90
2
 70
0
 10
50.690786
 20
173.838190
 30
0.0
 10
50.690786
 20
176.200037
 30
0.0
  0
LWPOLYLINE
  5
296
100
AcDbEntity
  8
text
 62
1
100
AcDbPolyline
 90
2
 70
0
 10
39.852335
 20
168.540004
 30
0.0
 10
50.716959
 20
175.023732
 30
0.0
  0
LWPOLYLINE
  5
297
100
AcDbEntity
  8
text
 62
1
100
AcDbPolyline
 90
2
 70
0
 10
39.754573
 20
183.040325
 30
0.0
 10
56.465761
 20
193.101355
 30
0.0
  0
LWPOLYLINE
  5
298
100
AcDbEntity
  8
text
 62
1
100
AcDbPolyline
 90
2
 70
0
 10
39.754573
 20
200.739146
 30
0.0
 10
50.495287
 20
208.313161
 30
0.0
  0
LWPOLYLINE
  5
299
100
AcDbEntity
  8
text
 62
1
100
AcDbPolyline
 90
2
 70
0
 10
39.754573
 20
217.576558
 30
0.0
 10
50.619197
 20
221.419293
 30
0.0
  0
LWPOLYLINE
  5
29a
100
AcDbEntity
  8
text
 62
1
100
AcDbPolyline
 90
2
 70
0
 10
39.491720
 20
233.370975
 30
0.0
 10
50.619197
 20
233.644358
 30
0.0
  0
LWPOLYLINE
  5
29b
100
AcDbEntity
  8
text
 62
1
100
AcDbPolyline
 90
2
 70
0
 10
40.630752
 20
246.363340
 30
0.0
 10
50.619197
 20
246.365034
 30
0.0
  0
ENDSEC
  0
SECTION
  2
OBJECTS
  0
DICTIONARY
  5
C
330
0
100
AcDbDictionary
  3
ACAD_GROUP
350
D
  3
ACAD_MLINESTYLE
350
17
  0
DICTIONARY
  5
D
330
C
100
AcDbDictionary
  0
DICTIONARY
  5
1A
330
C
100
AcDbDictionary
  0
DICTIONARY
  5
17
330
C
100
AcDbDictionary
  3
STANDARD
350
18
  0
DICTIONARY
  5
19
330
C
100
AcDbDictionary
  0
ENDSEC
  0
EOF
